<?xml version="1.0" standalone="no"?>
<!DOCTYPE svg PUBLIC "-//W3C//DTD SVG 1.1//EN" "http://www.w3.org/Graphics/SVG/1.1/DTD/svg11.dtd" >
<!--
2013-9-30: Created.
-->
<svg>
<metadata>
Created by iconfont
</metadata>
<defs>

<font id="iconfont" horiz-adv-x="1024" >
  <font-face
    font-family="iconfont"
    font-weight="500"
    font-stretch="normal"
    units-per-em="1024"
    ascent="896"
    descent="-128"
  />
    <missing-glyph />
    
    <glyph glyph-name="huojian1" unicode="&#59224;" d="M972.868 819.797a33.587 33.587 0 0 1-25.07 25.071c-183.348 42.12-383.352-8.004-525.859-150.51a560.947 560.947 0 0 1-55.415-64.632c-4.762-6.485-11.571-10.974-19.37-12.903-74.446-18.432-146.16-57.326-205.705-116.872a450.338 450.338 0 0 1-69.07-88.815c-16.28-27.494 11.623-59.921 41.592-48.845 47.292 17.476 98.39 26.061 151.057 26.095-0.734-4.488-1.792-8.926-2.423-13.414a2271.232 2271.232 0 0 1 115.592-124.775 2265.07 2265.07 0 0 1 124.775-115.592c4.488 0.631 8.926 1.69 13.397 2.423-0.034-52.667-8.619-103.765-26.095-151.057-11.076-29.969 21.35-57.873 48.845-41.591a450.44 450.44 0 0 1 88.832 69.069c59.528 59.528 98.423 131.26 116.855 205.687 1.929 7.8 6.435 14.61 12.903 19.37a560.947 560.947 0 0 1 64.631 55.416C964.864 436.462 1014.99 636.45 972.868 819.797z m-229.683-365.84A114.005 114.005 0 1 0 581.94 615.201a114.005 114.005 0 0 0 161.246-161.246zM183.484 206.507C148.924 171.947 2.406-42.19 44.117-83.9c41.711-41.71 255.847 104.824 290.407 139.367 34.56 34.56 28.757 96.375-12.954 138.069-41.71 41.728-103.543 47.53-138.086 12.97z"  horiz-adv-x="1024" />

    
    <glyph glyph-name="active" unicode="&#59223;" d="M938.154667 171.904l-133.461334-135.04-133.418666 134.997333c-2.474667 2.56-4.906667 4.138667-6.442667 5.162667-11.477333 7.808-28.16 8.234667-37.034667 3.712a41.002667 41.002667 0 0 1-12.970666-8.832l-161.450667-163.285333a40.874667 40.874667 0 0 1 0-57.045334c15.744-15.914667 42.88-14.677333 55.893333 0l133.461334 135.04 133.461333-135.04c7.68-7.765333 17.322667-11.861333 27.989333-11.861333 2.133333 0 5.461333 0 7.424 0.768a40.277333 40.277333 0 0 1 20.522667 11.093333l160.768 162.730667a38.954667 38.954667 0 0 1 1.664 57.6 40.704 40.704 0 0 1-56.405333 0z m-469.461334 132.864c155.434667 1.664 281.898667 131.328 281.898667 289.066667C750.08 752.64 621.738667 881.792 464.426667 881.792 307.2 881.792 179.285333 752.1279999999999 179.285333 592.768a288.128 288.128 0 0 1 129.322667-241.365333c-174.506667-65.834667-294.4-237.952-294.4-427.178667 0-21.333333 16.512-37.973333 37.589333-37.973333 21.034667 0 37.546667 16.64 37.546667 37.973333 0 209.536 167.552 380.032 373.546667 380.032 1.109333 0 2.474667 0.128 5.802666 0.512z m-4.266666 501.034667c115.797333 0 210.005333-95.36 210.005333-212.522667s-94.208-212.48-210.005333-212.48c-115.84 0-210.048 95.317333-210.048 212.48 0 117.162667 94.208 212.48 210.048 212.48z"  horiz-adv-x="1024" />

    
    <glyph glyph-name="time" unicode="&#59222;" d="M512 810.666667c235.648 0 426.666667-191.018667 426.666667-426.666667s-191.018667-426.666667-426.666667-426.666667S85.333333 148.352 85.333333 384 276.352 810.666667 512 810.666667z m32-170.666667h-64V383.957333l181.034667-180.992 45.226666 45.226667-162.261333 162.304V640z"  horiz-adv-x="1024" />

    
    <glyph glyph-name="xingping" unicode="&#59379;" d="M754.33472-35.84a48.4608 48.4608 0 0 0-22.49728 5.57056L512 84.992l-219.88864-115.23584a48.20992 48.20992 0 0 0-69.9904 50.688l41.984 244.05504-177.86368 172.85632a48.04608 48.04608 0 0 0 26.72128 82.01728l245.82656 35.59936 109.93152 222.05952a48.3072 48.3072 0 0 0 86.528 0l109.9264-222.05952 245.81632-35.59936a48.0512 48.0512 0 0 0 26.73152-82.0224l-177.8688-172.84608 41.984-244.06528A48.24064 48.24064 0 0 0 754.33472-35.84zM164.10624 457.472l155.78112-151.37792a47.97952 47.97952 0 0 0 13.8752-42.55232L296.96 49.79712l192.54784 100.9152a48.384 48.384 0 0 0 44.88704 0l192.55296-100.9152-36.77184 213.73952a47.97952 47.97952 0 0 0 13.86496 42.55232l155.8016 151.38304-215.2704 31.1808a48.26624 48.26624 0 0 0-36.31616 26.28096L512 709.42208 415.744 514.94912a48.24576 48.24576 0 0 0-36.352-26.2912z m505.856 87.83872zM485.48352 205.85472a48.19968 48.19968 0 0 0-31.12448 11.264l-88.832 74.78784a34.05312 34.05312 0 0 0-4.00896 48.20992 34.58048 34.58048 0 0 0 48.52736 3.97824l73.33376-61.73184 128.60928 146.432a34.59072 34.59072 0 0 0 48.58368 3.28704 34.048 34.048 0 0 0 3.30752-48.26624L521.9328 222.208a48.38912 48.38912 0 0 0-36.44928-16.35328z"  horiz-adv-x="1024" />

    
    <glyph glyph-name="naozhong" unicode="&#59388;" d="M804.72064 87.90016a407.43424 407.43424 0 0 1 31.71328 522.84416 128.60928 128.60928 0 0 1 35.98336 69.80608c5.93408 36.41856-4.22912 74.752-28.60032 107.83744a49.87392 49.87392 0 0 1-10.5472 10.5728c-39.29088 29.0304-83.968 37.67296-125.73696 24.33536a128.23552 128.23552 0 0 1-76.08832-66.0224 406.74816 406.74816 0 0 1-243.26656 0.25088A128.44544 128.44544 0 0 1 310.784 823.73632c-41.3952 12.67712-85.56032 3.88608-124.30336-24.73984a49.86368 49.86368 0 0 1-10.55744-10.5728c-24.39168-33.1264-34.36544-69.90848-28.86656-106.37824A126.8736 126.8736 0 0 1 182.784 611.21024a407.47008 407.47008 0 0 1 30.29504-522.17344L127.9488 2.87232a34.7136 34.7136 0 1 1 49.29536-48.89088L264.704 42.496a405.5552 405.5552 0 0 1 488.2176-0.98304l86.49216-87.552a34.7136 34.7136 0 1 1 49.29536 48.89088zM728.576 757.07904c19.27168 6.144 40.86784 1.78688 61.12256-12.32384 12.14976-17.4848 17.08032-35.75296 14.26944-53.00224a58.5984 58.5984 0 0 0-13.6448-28.81536 408.92928 408.92928 0 0 1-94.5152 67.6352 58.50112 58.50112 0 0 0 32.768 26.50624zM230.01088 744.7552c20.00384 13.93152 41.37984 18.39104 60.50816 12.52864a58.61376 58.61376 0 0 0 33.1776-26.38848 408.83712 408.83712 0 0 1-94.72-67.55328 57.90208 57.90208 0 0 0-13.34272 29.09696 72.59648 72.59648 0 0 0 14.37696 52.31616z m-58.25024-376.58112A337.68448 337.68448 0 1 0 509.44 29.82912a338.40128 338.40128 0 0 0-337.67936 338.34496zM684.16512 305.88928h-149.47328a48.76288 48.76288 0 0 0-48.78848 48.64V586.66496a34.816 34.816 0 0 0 69.59104 0v-211.39968h128.67072a34.688 34.688 0 1 0 0-69.376z"  horiz-adv-x="1024" />

    
    <glyph glyph-name="dianzan1" unicode="&#59399;" d="M278.9376-28.16a31.1808 31.1808 0 0 0-31.27808 31.09376v448.512a31.27808 31.27808 0 0 0 62.55616 0v-448.512a31.1808 31.1808 0 0 0-31.27808-31.09376zM731.54048-30.72H135.49568A43.44832 43.44832 0 0 0 92.16 12.73856v426.9568a43.44832 43.44832 0 0 0 43.3408 43.46368h122.84416c11.9808 1.29024 113.152 14.848 151.552 107.86816 9.43104 32.46592 12.34944 53.7344 17.56672 91.86816l2.2528 16.384c4.79744 87.74144 64 103.10144 98.97984 104.448 46.19776 1.8176 73.61536-17.19808 88.5248-33.408 31.3856-34.12992 41.93792-90.3168 32.256-171.776l-0.2816-1.87904-9.89696-54.62016-0.69632-2.0992a209.96096 209.96096 0 0 1-5.8368-21.67296 178.39104 178.39104 0 0 1 22.74304-1.13152h155.0592a121.27744 121.27744 0 0 0 90.96192-45.50656 118.784 118.784 0 0 0 21.62688-102.19008l-78.27456-325.12C838.89152 18.53952 807.424-30.72 731.54048-30.72z m-577.3312 62.2336h577.3312c45.38368 0 52.89472 26.90048 52.95616 27.17184l78.88384 327.48032a56.28928 56.28928 0 0 1-10.10688 46.31552 60.8512 60.8512 0 0 1-42.92096 22.40512h-154.8544c-44.2368 0-63.19104 6.83008-78.00832 28.10368l-0.70656 1.024c-4.84864 6.81472-14.848 20.864 2.23744 73.4464l8.94464 49.36192c6.93248 59.22304 1.1264 102.27712-16.384 121.2928-8.94976 9.728-22.1952 14.13632-40.56064 13.4144-28.22144-1.0752-37.80096-12.41088-39.424-46.65856l-0.26112-2.82624-2.37568-17.60768c-5.51424-40.33024-8.84736-64.67584-19.93216-102.47168l-1.024-2.87232C413.93152 434.85184 268.50304 421.5296 262.33856 421.03296l-2.5088-0.1024H154.20928v-389.41696z m473.088 488.65792l0.19968-0.28672z"  horiz-adv-x="1024" />

    
    <glyph glyph-name="jiangpai" unicode="&#59405;" d="M911.36 597.94432L791.45984 808.96H243.74272L117.76 598.35904l166.23104-244.1728a265.86624 265.86624 0 1 1 460.02688-2.27328zM280.87296 743.424h472.48384l80.896-142.39232-132.03968-194.1248a265.2672 265.2672 0 0 1-376.03328 1.69984L195.44576 600.63744z m232.47872-723.968a200.47872 200.47872 0 1 0 200.37632 200.45824 200.65792 200.65792 0 0 0-200.37632-200.45824zM512.98816 79.20128a137.53344 137.53344 0 1 0 137.50784 137.53344 137.6768 137.6768 0 0 0-137.50784-137.53344z m0 209.6896a72.16128 72.16128 0 1 1 72.14592-72.15616 72.23296 72.23296 0 0 1-72.14592 72.15616z"  horiz-adv-x="1024" />

    
    <glyph glyph-name="jiangbei" unicode="&#59406;" d="M755.64544 312.94464a32.22016 32.22016 0 0 0-10.9056 62.5152c106.14272 38.34368 164.31104 112.88576 144.75264 185.48736-10.62912 39.45984-80.896 30.208-110.6176 24.38144a32.2048 32.2048 0 0 0-12.3136 63.22176c142.25408 27.84256 176.75264-40.24832 184.9856-70.8096 28.34432-105.18528-47.73376-213.28384-185.00608-262.87104a31.8976 31.8976 0 0 0-10.89536-1.92512z m-487.28576 0a31.91296 31.91296 0 0 0-10.89536 1.92c-137.27232 49.5872-213.3504 157.696-185.00608 262.87104 8.22272 30.56128 42.74176 98.61632 184.9856 70.8096a32.2048 32.2048 0 0 0-12.3136-63.22176c-29.696 5.8112-99.98848 15.06816-110.6176-24.38144-19.5584-72.6016 38.60992-147.14368 144.75264-185.48736a32.22016 32.22016 0 0 0-10.9056-62.51008zM788.95104 33.7408h-243.76832v143.75936a286.62784 286.62784 0 0 1 253.63456 284.672V748.57984a45.01504 45.01504 0 0 1-44.9024 45.02016H272.1536a45.01504 45.01504 0 0 1-44.90752-45.02016v-286.42816a286.62784 286.62784 0 0 1 253.63968-284.672v-143.73888H235.04896a32.256 32.256 0 0 1 0-64.4608h553.90208a32.256 32.256 0 0 1 0 64.4608z m-497.408 428.41088V729.1392h442.9824v-266.98752a221.4912 221.4912 0 1 0-442.9824 0z"  horiz-adv-x="1024" />

    
    <glyph glyph-name="tixing" unicode="&#59408;" d="M853.30944 172.22144h-19.968V409.47712a323.49696 323.49696 0 0 1-212.74112 303.28832v39.81312C620.61056 806.25152 570.73664 849.92 509.44 849.92s-111.17056-43.66848-111.17056-97.34144v-39.81312a323.49184 323.49184 0 0 1-212.74112-303.28832v-237.25568h-19.968a32.35328 32.35328 0 1 1 0-64.70144h687.74912a32.35328 32.35328 0 1 1 0 64.70144zM463.17568 752.57856c0 17.6896 21.18656 32.64 46.26432 32.64s46.26432-14.9504 46.26432-32.64v-23.552a321.48992 321.48992 0 0 1-92.52864 0v23.552zM250.43456 172.22144V409.47712a259.00544 259.00544 0 0 0 518.01088 0v-237.25568H250.43456zM510.976-88.448a131.38432 131.38432 0 0 0-131.64544 130.7904 32.51712 32.51712 0 0 0 65.024 0 66.64192 66.64192 0 0 1 133.27872 0 32.51712 32.51712 0 0 0 65.024 0A131.3792 131.3792 0 0 0 510.976-88.448z"  horiz-adv-x="1024" />

    
    <glyph glyph-name="quanyi" unicode="&#59356;" d="M940.3392 801.93536A46.2848 46.2848 0 0 1 900.5056 824.32h-187.74016a46.42304 46.42304 0 0 1-41.472-25.35936l-73.10336-142.65856a362.30144 362.30144 0 0 1-177.3568-0.37888L347.55072 798.98112A46.4384 46.4384 0 0 1 306.06336 824.32H118.3232a46.592 46.592 0 0 1-41.38496-68.02944l130.56-251.52512c0.14336-0.2816 0.3328-0.512 0.512-0.79872a361.79968 361.79968 0 1 1 664.27904-198.55872 359.424 359.424 0 0 1-60.416 199.79776l130.0224 251.0848a46.21312 46.21312 0 0 1-1.55648 45.6448zM151.04 757.86752h142.848l63.81056-124.5696a363.52 363.52 0 0 1-104.04352-73.12384z m359.29088-747.73504a295.27552 295.27552 0 1 0 89.088 576.80896c0.15872-0.08704 0.28672-0.20992 0.44544-0.29184a32.83456 32.83456 0 0 1 9.10336-2.94912 295.22432 295.22432 0 0 0-98.6368-573.568z m255.6672 551.08608a363.52 363.52 0 0 1-104.54528 72.7552l63.488 123.904h142.88384zM510.21312 124.99456A177.08544 177.08544 0 1 0 687.50336 302.08a177.39264 177.39264 0 0 0-177.29024-177.08544z m0 287.7696A110.68416 110.68416 0 1 1 621.056 302.08a110.87872 110.87872 0 0 1-110.84288 110.68416z"  horiz-adv-x="1024" />

    
    <glyph glyph-name="huiyuan9" unicode="&#59360;" d="M514.56-20.48a46.13632 46.13632 0 0 0-34.08384 15.09888L63.104 455.13216a45.69088 45.69088 0 0 0-2.2784 58.74688L259.584 770.65728A46.30528 46.30528 0 0 0 295.936 788.48h437.248a46.28992 46.28992 0 0 0 36.352-17.82272l198.76352-256.78336a45.696 45.696 0 0 0-2.28864-58.74176l-417.3568-460.50816A46.11584 46.11584 0 0 0 514.56-20.48zM122.72128 486.85056l391.83872-432.34816 391.8336 432.34816-182.8608 236.25216h-417.9456z m188.7488 243.85024l-0.03072-0.04096a0.10752 0.10752 0 0 1 0.0256 0.03072zM721.69984 508.416a32.85504 32.85504 0 0 1-46.2592-2.69824l-7.72096-8.64256c-21.376-23.58272-110.00832-121.344-153.94304-169.64096a184460.16512 184460.16512 0 0 0-153.94816 169.64096l-7.72096 8.64256a32.71168 32.71168 0 0 1-48.96768-43.38176l3.36896-3.77344-0.04096-0.03584 4.86912-5.37088c30.11072-33.6896 133.30432-148.992 168.78592-186.47552a46.08 46.08 0 0 1 33.3824-14.3616h0.512a46.08 46.08 0 0 1 33.3824 14.3616c35.4816 37.49888 138.6752 152.78592 168.78592 186.47552l4.86912 5.37088-0.03584 0.03584 3.36896 3.77344a32.56832 32.56832 0 0 1-2.688 46.08z"  horiz-adv-x="1024" />

    
    <glyph glyph-name="xihuan" unicode="&#59367;" d="M512.04608-10.24a49.34656 49.34656 0 0 0-34.98496 14.464l-336.384 336.43008a253.20448 253.20448 0 1 0 357.888 358.25664l13.44-13.45536 13.44512 13.45536a253.20448 253.20448 0 0 0 357.888 0 253.78304 253.78304 0 0 0 0-358.2464l-336.384-336.4352a49.28 49.28 0 0 0-34.90816-14.46912zM319.64672 702.4384a182.68672 182.68672 0 0 1-129.024-311.808l321.4336-321.48992L833.4848 390.656a182.97856 182.97856 0 0 1 0 258.29376 182.35904 182.35904 0 0 1-258.048 0l-28.3648-28.39552a49.52064 49.52064 0 0 0-70.00064 0l-28.3648 28.39552a181.18656 181.18656 0 0 1-129.05984 53.48864zM438.03648 220.70784a35.2 35.2 0 0 0-25.26208 10.64448l-106.80832 109.40416a143.872 143.872 0 0 0 0 199.68 137.17504 137.17504 0 0 0 197.12 0 35.328 35.328 0 1 0-50.54976-49.42848 66.56 66.56 0 0 1-96.03072 0 72.64256 72.64256 0 0 1 0-100.82304l106.79296-109.39392a35.36896 35.36896 0 0 0-25.26208-60.0832z"  horiz-adv-x="1024" />

    
    <glyph glyph-name="zhuomian" unicode="&#59369;" d="M893.25056 100.02432H130.74944A48.83968 48.83968 0 0 0 81.92 148.77696V744.84736A48.83968 48.83968 0 0 0 130.74944 793.6h762.50112A48.8448 48.8448 0 0 0 942.08 744.84736v-596.0704a48.8448 48.8448 0 0 0-48.82944-48.75264zM151.552 169.56416h720.896v554.496H151.552v-554.496zM847.63136-25.6h-677.888a34.76992 34.76992 0 1 0 0 69.53984h677.888a34.76992 34.76992 0 1 0 0-69.53984zM242.36032 272.41984a34.816 34.816 0 0 0-25.31328 58.73664l158.08 167.49056a48.87552 48.87552 0 0 0 58.81344 9.37984l176.128-95.85152 144.95744 166.25152a34.816 34.816 0 1 0 52.48512-45.77792L651.59168 353.792a48.512 48.512 0 0 0-60.11392-10.80832L414.76096 439.168l-147.07712-155.83232a34.69824 34.69824 0 0 0-25.32352-10.91584z"  horiz-adv-x="1024" />

    
    <glyph glyph-name="dingwei1" unicode="&#59371;" d="M949.98016 19.27168L840.704 342.28736a45.95712 45.95712 0 0 1-43.61216 31.12448H709.12c31.91296 66.80576 49.75616 132.4288 49.75616 189.68064a247.60832 247.60832 0 0 1-495.2064 0c0-53.98016 14.0544-121.1392 43.2896-189.68064H214.81472a46.27968 46.27968 0 0 1-44.08832-32.61952l-97.11616-322.97984a45.61408 45.61408 0 0 1 7.168-40.37632A46.3104 46.3104 0 0 1 117.68832-40.96h788.67456a46.21312 46.21312 0 0 1 37.376 19.01568 45.568 45.568 0 0 1 6.24128 41.216zM511.2576 743.79264A181.54496 181.54496 0 0 0 693.248 563.09248c0-104.68864-71.85408-244.87936-184.18176-361.0112-118.08768 102.912-179.76832 257.48992-179.76832 361.0112a181.54496 181.54496 0 0 0 181.95968 180.70016zM144.03072 24.20736L229.43744 308.224h109.88544a596.66944 596.66944 0 0 1 141.98784-168.18688 46.1056 46.1056 0 0 1 61.51168 3.15392 876.60544 876.60544 0 0 1 130.88768 165.03296h109.28128l96.11264-284.01664H144.03072zM512.86016 436.77696A119.73632 119.73632 0 1 0 633.344 556.51328a120.24832 120.24832 0 0 0-120.48384-119.73632z m0 174.08a54.33344 54.33344 0 1 1 54.67648-54.32832 54.56384 54.56384 0 0 1-54.67648 54.31296z"  horiz-adv-x="1024" />

    
    <glyph glyph-name="shijian" unicode="&#59372;" d="M512-56.32a440.32 440.32 0 1 0 440.32 440.32 440.832 440.832 0 0 0-440.32-440.32z m0 809.62048A369.30048 369.30048 0 1 1 881.30048 384 369.72032 369.72032 0 0 1 512 753.30048zM740.82816 129.3568a35.28192 35.28192 0 0 0-22.912 8.42752l-229.888 195.47648a49.664 49.664 0 0 0-17.52064 37.888V615.13216a35.41504 35.41504 0 1 0 70.8352 0v-234.1632l222.44864-189.12768a35.456 35.456 0 0 0-22.9632-62.48448z"  horiz-adv-x="1024" />

    
    <glyph glyph-name="shuju" unicode="&#59373;" d="M278.87616 102.4H139.4176a47.01184 47.01184 0 0 0-46.88384 47.04768V506.88a47.01184 47.01184 0 0 0 46.88384 47.04256h139.45856A47.01184 47.01184 0 0 0 325.76 506.88v-357.44256A47.01184 47.01184 0 0 0 278.87616 102.4z m-119.46496 67.10784h99.47648V486.81984H159.4112v-317.31712zM882.97984 102.4h-139.45856a47.01184 47.01184 0 0 0-46.88384 47.04768v221.37344a47.01184 47.01184 0 0 0 46.88384 47.04768h139.45856a47.01696 47.01696 0 0 0 46.88384-47.04768v-221.37344a47.01696 47.01696 0 0 0-46.88384-47.04768z m-119.47008 67.10784h99.47648v181.248h-99.47648v-181.248zM580.93056 102.4H441.46688a47.01184 47.01184 0 0 0-46.88384 47.04768V746.56256A47.01184 47.01184 0 0 0 441.46688 793.6h139.46368a47.01184 47.01184 0 0 0 46.87872-47.04256v-597.10976a47.01184 47.01184 0 0 0-46.87872-47.04768z m-119.4752 67.10784h99.47648V726.49216H461.45536v-556.98432zM918.87616-26.93632H105.12384a33.82272 33.82272 0 0 0 0 67.64032h813.75232a33.82272 33.82272 0 0 0 0-67.64032z"  horiz-adv-x="1024" />

    
    <glyph glyph-name="jiesuo" unicode="&#59374;" d="M850.51392 499.6352H317.16352v65.024a188.86144 188.86144 0 0 0 377.19552 14.60736 32.44544 32.44544 0 1 1 64.70656 4.93056 253.7472 253.7472 0 0 1-506.79808-19.54304v-65.024H168.37632A45.61408 45.61408 0 0 1 122.88 453.99552v-464.68096A45.61408 45.61408 0 0 1 168.37632-56.32h682.1376a45.60896 45.60896 0 0 1 45.48608 45.63456V453.99552a45.60896 45.60896 0 0 1-45.48608 45.63968z m-19.4048-490.85952H187.77088V434.53952h643.33824v-425.76384zM510.90432 63.25248A70.8352 70.8352 0 0 0 440.28928 134.144v64.74752a104.38144 104.38144 0 1 0 141.23008 2.60096V134.144a70.8352 70.8352 0 0 0-70.61504-70.89152zM509.44 316.928a39.58272 39.58272 0 0 1-20.06016-73.63072l15.872-9.48224V134.144a5.632 5.632 0 1 1 11.264 0v100.4544l14.57664 9.67168A39.61856 39.61856 0 0 1 509.44 316.928z"  horiz-adv-x="1024" />

    
    <glyph glyph-name="mima" unicode="&#59375;" d="M855.3216 504.7552H763.392V586.84928l-0.09216 2.46784a255.488 255.488 0 0 1-510.1568-19.54816v-65.024H168.67328A45.76768 45.76768 0 0 1 122.88 459.11552v-464.68096A45.76768 45.76768 0 0 1 168.67328-51.2h686.64832a45.76256 45.76256 0 0 1 45.7984 45.63456V459.11552a45.76256 45.76256 0 0 1-45.7984 45.63968zM318.464 569.76384a190.16192 190.16192 0 0 0 379.60704 15.7952v-80.80384H318.464v65.024z m517.33504-555.86816H188.20096V439.65952h647.59808v-425.76384zM513.47456 63.25248A71.07072 71.07072 0 0 0 442.3936 134.144v64.74752a105.05728 105.05728 0 1 0 142.16192 2.59072V134.144a71.07072 71.07072 0 0 0-71.08096-70.89152zM512 316.928a39.70048 39.70048 0 0 1-39.71072-39.60832 39.29088 39.29088 0 0 1 19.51744-34.0224l16-9.48224V134.144a5.66784 5.66784 0 0 1 11.33568 0v100.4544l14.67904 9.67168A39.56736 39.56736 0 0 1 512 316.928z"  horiz-adv-x="1024" />

    
    <glyph glyph-name="xianxingbiao" unicode="&#59212;" d="M89.85 626.69m-26.03 0a26.03 26.03 0 1 1 52.06 0 26.03 26.03 0 1 1-52.06 0ZM135.4 724.72m-26.03 0a26.03 26.03 0 1 1 52.06 0 26.03 26.03 0 1 1-52.06 0ZM934.15 679.17m-26.03 0a26.03 26.03 0 1 1 52.06 0 26.03 26.03 0 1 1-52.06 0ZM520.03 610.22H515.01v-0.51c-15.26-2.42-26.96-15.54-26.96-31.48v-196.21c0-15.94 11.7-29.05 26.96-31.48v-0.5h15.44c17.67 0 31.98 14.31 31.98 31.98V578.23c0 17.66-14.32 31.99-31.98 31.99h-10.42zM698.65 232.63c0 0.01 0.01 0.01 0.02 0.03l3.37 3.67-0.37 0.34c8.54 12.88 6.79 30.37-4.95 41.15L552.21 410.54c-11.74 10.78-29.31 11.03-41.43 1.43l-0.37 0.34-3.39-3.7-6.04-6.58-1.01-1.1c-11.95-13.01-11.09-33.23 1.92-45.18l144.52-132.71c13.01-11.95 33.25-11.1 45.19 1.92l1.01 1.09 6.04 6.58zM525.01-31.77c-229.26 0-415.77 186.51-415.77 415.77S295.75 799.77 525.01 799.77 940.78 613.25 940.78 384c0.01-229.26-186.5-415.77-415.77-415.77z m0 767.57c-193.99 0-351.8-157.82-351.8-351.81 0-193.98 157.82-351.8 351.8-351.8C719 32.2 876.82 190.01 876.82 384S719 735.8 525.01 735.8z m0 0"  horiz-adv-x="1024" />

    
    <glyph glyph-name="xianxingfanghu" unicode="&#59213;" d="M763.37 425.52v5.4h-0.54c-2.61 16.43-16.72 29.02-33.89 29.02H384.65c-17.16 0-31.28-12.59-33.89-29.02h-0.54v-16.63c0-19.02 15.41-34.43 34.43-34.43h344.29c19.01 0 34.43 15.41 34.43 34.43v11.23zM556.19-63.56c-13.93 0-27.89 4.21-39.79 12.64L340.24 73.92C234.8 156.66 177.47 273.64 177.47 404.3V641.26c0.01 13.3 7.67 25.42 19.69 31.11L517.75 824.38c1.2 0.58 2.43 1.08 3.7 1.49 22.34 7.56 47 7.59 69.38 0 1.26-0.41 2.51-0.92 3.7-1.49l320.7-152.01a34.428 34.428 0 0 0 19.69-31.11V404.3c0-130.67-57.33-247.65-161.41-329.38L596-50.91c-11.9-8.43-25.86-12.65-39.81-12.65zM246.33 619.48V404.3c0-109.08 47.98-206.82 135.08-275.22l174.78-123.81L732.34 130.1c85.75 67.38 133.71 165.13 133.71 274.21V619.48L567.12 761.17c-7.14 2.07-14.86 2.07-21.97 0L246.33 619.48z m0 0M556.19 219.16c-19.01 0-34.42 15.41-34.42 34.42V583.31c0 19.02 15.41 34.43 34.42 34.43 19.02 0 34.43-15.41 34.43-34.43v-329.73c0-19.01-15.41-34.42-34.43-34.42z m0 0M96.1 676.6m-28.02 0a28.02 28.02 0 1 1 56.04 0 28.02 28.02 0 1 1-56.04 0ZM145.13 782.12m-28.02 0a28.02 28.02 0 1 1 56.04 0 28.02 28.02 0 1 1-56.04 0ZM927.9 754.1m-28.02 0a28.02 28.02 0 1 1 56.04 0 28.02 28.02 0 1 1-56.04 0ZM591.56 797c0-19.02-15.82-34.45-35.35-34.45S520.86 777.97 520.86 797s15.82 34.45 35.35 34.45S591.56 816.03 591.56 797zM934.91 640.56c0-20.31-16.9-36.79-37.75-36.79s-37.75 16.47-37.75 36.79 16.9 36.79 37.75 36.79c20.86 0 37.75-16.47 37.75-36.79zM252.96 640.56c0-20.31-16.9-36.79-37.75-36.79s-37.75 16.47-37.75 36.79 16.9 36.79 37.75 36.79c20.86 0 37.75-16.47 37.75-36.79zM590.03-29c0-19.08-15.68-34.56-35.02-34.56-19.35 0-35.02 15.47-35.02 34.56 0 19.09 15.68 34.56 35.02 34.56 19.34 0 35.02-15.47 35.02-34.56z"  horiz-adv-x="1024" />

    
    <glyph glyph-name="xianxinglingdang" unicode="&#59214;" d="M90.23 562.25m-26.41 0a26.41 26.41 0 1 1 52.82 0 26.41 26.41 0 1 1-52.82 0ZM136.45 661.72m-26.41 0a26.41 26.41 0 1 1 52.82 0 26.41 26.41 0 1 1-52.82 0ZM933.77 615.5m-26.41 0a26.41 26.41 0 1 1 52.82 0 26.41 26.41 0 1 1-52.82 0ZM396.92 565.38h-0.04l-5.05 0.41-0.04-0.51c-15.64-1.19-28.55-13.5-29.86-29.62l-23.1-284c-1.31-16.12 9.44-30.35 24.68-34.06l-0.04-0.51 5.08-0.42 9.04-0.73 1.5-0.13c17.87-1.45 33.53 11.85 34.99 29.72l23.09 284c1.46 17.86-11.84 33.53-29.71 34.99l-1.51 0.12-9.03 0.74zM216.93 115.43c-0.95 0.01-1.9 0.04-2.85 0.12-17.86 1.57-31.07 17.3-29.5 35.16 0.16 1.86 16.43 188.09 32.48 347.95C235.52 682.43 359.36 805.9 525.21 805.9c159.2 0 288.79-129.1 308.12-306.97 16.08-147.97 32.38-346.41 32.53-348.4 1.46-17.87-11.84-33.53-29.69-34.99-17.89-1.62-33.53 11.83-34.99 29.7-0.16 1.98-16.38 199.58-32.38 346.67-13.45 123.78-101.44 249.08-243.59 249.08-130.73 0-228.61-99.99-243.55-248.81-16.02-159.45-32.27-345.25-32.42-347.12-1.48-16.89-15.65-29.63-32.31-29.63z m0 0M914.65 89.88H135.77c-17.92 0-32.45 14.53-32.45 32.45s14.53 32.45 32.45 32.45h778.88c17.92 0 32.45-14.53 32.45-32.45s-14.53-32.45-32.45-32.45z m0 0M533.32-37.9c-80.53 0-146.04 65.92-146.04 146.94 0 17.92 14.53 32.45 32.45 32.45s32.45-14.53 32.45-32.45c0-45.25 36.39-82.04 81.13-82.04 44.74 0 81.14 36.79 81.14 82.04 0 17.92 14.53 32.45 32.45 32.45s32.45-14.53 32.45-32.45c0.01-81.02-65.5-146.94-146.03-146.94z m0 0"  horiz-adv-x="1024" />

    
    <glyph glyph-name="xianxingdingwei" unicode="&#59215;" d="M511.07 48.43c-20.3 0-38.98 9.15-51.21 25.11l-202.79 264.3c-3.31 3.79-5.44 7.4-6.8 9.69-36.46 51.11-56.02 111.95-56.02 175.29 0.76 170.31 143.19 308.73 317.5 308.73 174.69 0 316.83-138.49 316.83-308.73-0.74-63.51-20.28-123.85-56.52-175.01-1.7-2.85-3.83-6.37-6.97-9.97l-202.8-264.31c-12.23-15.96-30.91-25.1-51.22-25.1zM308.22 383.91c0.92-0.97 1.8-1.99 2.62-3.04l200.22-260.98L711.3 380.87c0.36 0.46 0.72 0.92 1.12 1.36l2.08 3.43c0.27 0.41 0.55 0.82 0.84 1.24 28.46 39.83 43.81 86.98 44.38 136.34 0 131.85-111.23 239.47-247.97 239.47-136.52 0-248.05-107.68-248.64-240.03 0-48.75 15.11-95.75 43.7-135.78l2.7-4.25v-0.03c-0.08-0.01-0.68 0.66-1.29 1.29z m405.65-0.05c0-0.01 0-0.01-0.01-0.03 0.01 0.02 0.01 0.02 0.01 0.03z m0.05 0.05c0-0.02-0.01-0.03-0.03-0.05 0.01 0.03 0.03 0.03 0.03 0.05z m0 0M136.01 680.73m-28.02 0a28.02 28.02 0 1 1 56.04 0 28.02 28.02 0 1 1-56.04 0ZM185.04 786.25m-28.02 0a28.02 28.02 0 1 1 56.04 0 28.02 28.02 0 1 1-56.04 0ZM848.74 737.22m-28.02 0a28.02 28.02 0 1 1 56.04 0 28.02 28.02 0 1 1-56.04 0ZM546.67 85.39c0-20.41-15.77-36.96-35.25-36.96s-35.26 16.55-35.26 36.96 15.77 36.95 35.26 36.95c19.47 0 35.25-16.54 35.25-36.95zM907.91-63.56h-0.18l-791.83 4.32a34.44 34.44 0 0 0-29.74 17.42c-6.09 10.7-6 23.83 0.24 34.45 0 0.01 67.24 114.44 100.71 171.74 9.56 16.43 30.67 21.95 47.08 12.37 16.42-9.6 21.95-30.68 12.35-47.1-18.8-32.21-48.29-82.48-70.52-120.34l671.79-3.66c-23.09 39.59-54.16 92.84-74.04 126.75-9.61 16.4-4.1 37.49 12.31 47.11 16.38 9.61 37.49 4.12 47.11-12.3 34.93-59.61 104.47-179 104.47-179a34.384 34.384 0 0 0 0.05-34.56 34.427 34.427 0 0 0-29.8-17.2z m0 0M512 370.32c-80.67 0-146.31 65.63-146.31 146.31S431.33 662.95 512 662.95s146.31-65.64 146.31-146.32c0-80.67-65.64-146.31-146.31-146.31z m0 206.57c-33.22 0-60.24-27.03-60.24-60.25S478.79 456.4 512 456.4s60.24 27.03 60.24 60.24-27.03 60.25-60.24 60.25z m0 0"  horiz-adv-x="1024" />

    
    <glyph glyph-name="xianxingshezhi" unicode="&#59216;" d="M701.59 15.64H349.91c-23.02 0-44.43 12.3-55.9 32.12l-176.09 304.3c-11.4 19.69-11.4 44.18 0.02 63.9l176.08 304.28c11.46 19.81 32.89 32.13 55.9 32.13H701.6c22.98 0 44.39-12.3 55.88-32.1l176.11-304.32c11.39-19.71 11.39-44.17 0-63.86L757.48 47.76c-11.49-19.83-32.9-32.12-55.89-32.12zM349.91 688.29L173.38 383.84l176.1-303.99-27.73-16.05 27.73 16.04c0-0.01 0.14-0.15 0.44-0.15H701.6l176.53 304.45-176.1 303.99-352.12 0.16z m0 0M89.85 605.74m-26.03 0a26.03 26.03 0 1 1 52.06 0 26.03 26.03 0 1 1-52.06 0ZM135.4 703.77m-26.03 0a26.03 26.03 0 1 1 52.06 0 26.03 26.03 0 1 1-52.06 0ZM934.15 658.22m-26.03 0a26.03 26.03 0 1 1 52.06 0 26.03 26.03 0 1 1-52.06 0ZM358.95 710.78c0-18.24-14.11-33.04-31.52-33.04-17.42 0-31.52 14.8-31.52 33.04 0 18.25 14.1 33.04 31.52 33.04 17.41-0.01 31.52-14.79 31.52-33.04zM174.03 391.31c0-17.68-14.48-32.02-32.33-32.02-17.86 0-32.33 14.35-32.33 32.02 0 17.69 14.47 32.02 32.33 32.02 17.85 0.01 32.33-14.33 32.33-32.02zM942.12 381.55c0-17.68-14.48-32.02-32.33-32.02-17.86 0-32.33 14.35-32.33 32.02 0 17.69 14.47 32.02 32.33 32.02 17.85 0 32.33-14.33 32.33-32.02zM750.19 715.11c0-18.24-14.11-33.04-31.52-33.04-17.42 0-31.52 14.8-31.52 33.04 0 18.25 14.1 33.04 31.52 33.04 17.41 0 31.52-14.79 31.52-33.04zM364.35 53.02c0-18.24-14.11-33.04-31.52-33.04-17.42 0-31.52 14.8-31.52 33.04 0 18.25 14.1 33.04 31.52 33.04 17.41-0.01 31.52-14.79 31.52-33.04zM746.92 51.54c0-18.33-13.56-33.2-30.3-33.2-16.74 0-30.3 14.87-30.3 33.2 0 18.35 13.56 33.21 30.3 33.21 16.73 0 30.3-14.86 30.3-33.21zM525.74 231.85c-83.89 0-152.15 68.26-152.15 152.14 0 83.9 68.26 152.16 152.15 152.16 83.9 0 152.15-68.26 152.15-152.16 0-83.88-68.25-152.14-152.15-152.14z m0 224.22c-39.74 0-72.07-32.33-72.07-72.08 0-39.74 32.33-72.07 72.07-72.07 39.75 0 72.07 32.33 72.07 72.07 0 39.75-32.33 72.08-72.07 72.08z m0 0"  horiz-adv-x="1024" />

    
    <glyph glyph-name="xianxingshalou" unicode="&#59217;" d="M727.33 111.18v5.11h-0.52c-2.47 15.54-15.82 27.46-32.06 27.46H369.01c-16.23 0-29.59-11.91-32.06-27.46h-0.51V100.56c0-17.99 14.58-32.57 32.57-32.57h325.74c17.99 0 32.58 14.58 32.58 32.57v10.62zM88.02 705.21m-26.51 0a26.51 26.51 0 1 1 53.02 0 26.51 26.51 0 1 1-53.02 0ZM134.41 805.05m-26.51 0a26.51 26.51 0 1 1 53.02 0 26.51 26.51 0 1 1-53.02 0ZM962.49 758.66c0-14.64-11.86-26.51-26.5-26.51-14.65 0-26.52 11.87-26.52 26.51 0 14.64 11.87 26.51 26.52 26.51 14.64 0 26.5-11.87 26.5-26.51zM776.58-63.56h-489.4c-35.99 0-65.26 29.26-65.26 65.25V83.4c0 56.58 20.87 110.88 58.76 152.91l111.95 124.21-112.01 124.37c-37.85 42.02-58.69 96.3-58.69 152.85v81.75c0 35.98 29.27 65.25 65.26 65.25h489.4c35.98 0 65.26-29.27 65.26-65.25v-81.75c0-56.54-20.84-110.82-58.67-152.85L671.13 360.53 783.1 236.31c37.88-42.02 58.73-96.33 58.73-152.9v-81.71c0-35.99-29.26-65.26-65.25-65.26z m-489.4 783.04v-81.75c0-40.39 14.89-79.17 41.93-109.18l131.69-146.2c11.18-12.41 11.16-31.26-0.02-43.67L329.15 192.63c-27.07-30.02-41.96-68.81-41.96-109.22v-81.71h489.4v81.71c0 40.41-14.9 79.2-41.94 109.22L602.98 338.68c-11.18 12.41-11.2 31.27-0.02 43.67l131.7 146.2c27.04 30.02 41.92 68.8 41.92 109.18v81.75h-489.4z m0 0M300.05 746.36c0-17.76-14.79-32.17-33.05-32.17-18.26 0-33.05 14.41-33.05 32.17 0 17.78 14.79 32.18 33.05 32.18 18.26 0 33.05-14.41 33.05-32.18zM830.23 746.36c0-17.76-14.79-32.17-33.05-32.17-18.26 0-33.05 14.41-33.05 32.17 0 17.78 14.79 32.18 33.05 32.18 18.27 0 33.05-14.41 33.05-32.18zM303.98-27.21c0-17.76-14.79-32.17-33.05-32.17-18.26 0-33.05 14.41-33.05 32.17 0 17.78 14.79 32.18 33.05 32.18 18.26 0 33.05-14.41 33.05-32.18zM830.02-23.07c0-17.76-14.79-32.17-33.05-32.17-18.26 0-33.05 14.41-33.05 32.17 0 17.78 14.79 32.18 33.05 32.18 18.26 0 33.05-14.4 33.05-32.18zM670.63 360.58c0-20.44-17.01-37.01-38.02-37.01-21 0-38.02 16.57-38.02 37.01 0 20.45 17.01 37.02 38.02 37.02 21 0 38.02-16.57 38.02-37.02zM468.49 360.59c0-20.44-17.01-37.01-38.02-37.01-21 0-38.02 16.57-38.02 37.01 0 20.45 17.01 37.02 38.02 37.02s38.02-16.57 38.02-37.02z"  horiz-adv-x="1024" />

    
    <glyph glyph-name="xianxinghuangguan" unicode="&#59218;" d="M742.63-1.72H242.28c-30.22 0-56.26 20.52-63.32 49.89L77.94 467.12c-5.83 24.19 2.4 49.16 21.47 65.16 19.08 16.01 45.09 19.76 67.92 9.8l131.47-57.4 84.78 101.8c-7.99 14.41-13.01 30.32-14.76 47.03-3.79 36.23 8.41 71.99 33.43 98.09 23.54 24.55 55.36 38.09 89.6 38.12 34.34-0.16 66.12-14.02 89.66-39.04 24.69-26.27 36.53-62.03 32.49-98.14-1.81-16.38-6.81-31.97-14.65-46.12l84.82-101.81 133.67 57.83c22.78 9.88 48.76 6.06 67.8-9.94 19-16 27.2-40.94 21.38-65.1L805.95 48.16c-7.07-29.36-33.11-49.88-63.32-49.88zM141.71 483.37l-1.49-1.23 101-418.97 501.4-0.83L844.73 482.4l-14.18 30.64 12.72-29.4-155.66-67.34c-13.03-5.67-28.23-2.02-37.33 8.89L534.4 564.3c-10.21 12.28-9.84 30.2 0.89 42.02 8.47 9.32 13.67 20.85 15.07 33.32 1.94 17.42-3.71 34.61-15.5 47.16-11.37 12.08-26.7 18.78-43.14 18.86-16.7-0.01-31.72-6.37-43.24-18.4-11.96-12.47-17.77-29.64-15.95-47.11 1.34-12.83 6.43-24.22 15.12-33.83 10.69-11.83 11.06-29.72 0.86-41.98L332.64 425.22c-9.13-10.94-24.36-14.59-37.42-8.86l-153.51 67.01z m0 0M89.85 623.99m-26.03 0a26.03 26.03 0 1 1 52.06 0 26.03 26.03 0 1 1-52.06 0ZM135.4 722.02m-26.03 0a26.03 26.03 0 1 1 52.06 0 26.03 26.03 0 1 1-52.06 0ZM934.15 617.91m-26.03 0a26.03 26.03 0 1 1 52.06 0 26.03 26.03 0 1 1-52.06 0ZM263.79 354.65c-0.01 0-0.02-0.01-0.03 0l-4.8-1.37 0.14-0.5c-14.01-6.52-21.66-22.34-17.27-37.68l53.93-188.64c4.38-15.33 19.23-24.73 34.58-22.86l0.13-0.48 4.83 1.38 8.59 2.45 1.43 0.41c16.98 4.85 26.82 22.55 21.96 39.53l-53.92 188.65c-4.86 16.98-22.56 26.82-39.55 21.96l-1.43-0.41-8.59-2.44zM254.87 36.63c0-18.35-14.2-33.25-31.72-33.25-17.53 0-31.72 14.9-31.72 33.25 0 18.37 14.19 33.25 31.72 33.25 17.52 0 31.72-14.88 31.72-33.25zM794.97 38.04c0-18.35-14.2-33.25-31.72-33.25-17.53 0-31.72 14.9-31.72 33.25 0 18.37 14.19 33.25 31.72 33.25 17.52-0.01 31.72-14.89 31.72-33.25z"  horiz-adv-x="1024" />

    
    <glyph glyph-name="xianxingxiaoshou" unicode="&#59219;" d="M735.76 36.59c-0.89 0-1.76 0.04-2.64 0.12l-498.1 0.1c-14.86 0-28.82 5.79-39.32 16.31-10.5 10.5-16.27 24.48-16.26 39.33l0.2 308.44c0.02 27.88 20.91 51.58 48.57 55.12 78.97 10.13 141.71 27.73 163.72 45.92 34.76 28.7 65.22 85.17 65.22 120.85 0 60.91 47.69 108.61 108.55 108.61 49.16 0 91.49-32.43 104.56-79.44 0.72-1.62 1.27-3.31 1.64-5.03 5.12-23.25 7.71-46.62 7.71-69.48 0-23.09-2.46-45.94-7.33-68.29l118.44-0.1c2.43 0 4.73-0.16 6.98-0.48 36.17-2.05 68.88-21.38 87.77-51.96 11.97-18.76 17.68-40.94 16.39-63.97a55.39 55.39 0 0 0-1.87-16.51L840.21 112.1c-1.75-6.58-4.08-11.92-7.14-16.67-9.09-17.28-22.35-31.72-38.48-41.82-17.5-11.1-37.89-17.02-58.83-17.02zM565.71 675.82c-30.19 0-52.97-22.79-52.97-53.02 0-58.32-43.43-129.04-85.4-163.71-39.74-32.84-126.39-49.78-192.05-58.21l-0.26-308.47 500.73-0.11c0.72 0 1.42-0.02 2.13-0.08a54.42 54.42 0 0 1 27.06 8.43c8.17 5.12 14.8 12.52 19.34 21.48a27.8 27.8 0 0 0 2.13 3.55l59.65 263.85c-0.12 1.41 0.13 3.85 0.23 5.26 0.86 11.68-1.88 22.85-7.9 32.3-9.69 15.67-26.32 25.29-44.71 26.05-1.3 0.05-2.59 0.19-3.87 0.43l-154.21 0.04a27.836 27.836 0 0 0-22.64 11.7 27.833 27.833 0 0 0-3.58 25.23c9.72 27.93 14.65 57.17 14.65 86.92 0 17.54-1.87 35.51-5.55 53.51-0.48 1.21-0.87 2.46-1.16 3.74-5.61 24.19-26.83 41.11-51.62 41.11z m0 0M86.4 446.11m-22.59 0a22.59 22.59 0 1 1 45.18 0 22.59 22.59 0 1 1-45.18 0ZM125.93 531.17m-22.59 0a22.59 22.59 0 1 1 45.18 0 22.59 22.59 0 1 1-45.18 0ZM937.6 491.65m-22.59 0a22.59 22.59 0 1 1 45.18 0 22.59 22.59 0 1 1-45.18 0ZM317.43 400.3h-4.36v-0.44c-13.24-2.1-23.4-13.48-23.4-27.32v-243.65c0-13.83 10.15-25.21 23.4-27.32v-0.44H326.47c15.33 0 27.75 12.42 27.75 27.75V372.54c0 15.32-12.42 27.76-27.75 27.76h-9.04zM242.63 420.3c0-15.94-12.16-28.86-27.15-28.86-15 0-27.16 12.93-27.16 28.86 0 15.94 12.15 28.87 27.16 28.87 14.99 0 27.15-12.92 27.15-28.87zM242.63 72.27c0-15.94-12.16-28.86-27.15-28.86-15 0-27.16 12.93-27.16 28.86 0 15.94 12.15 28.87 27.16 28.87 14.99 0 27.15-12.93 27.15-28.87z"  horiz-adv-x="1024" />

    
    <glyph glyph-name="xianxingxing" unicode="&#59220;" d="M255.46-46.9c-9.42 0-18.4 4.01-24.69 11.03-6.28 7.02-9.3 16.38-8.26 25.74l29.97 271.82L72.73 455.34a33.147 33.147 0 0 0-7.52 32.13 33.196 33.196 0 0 0 23.96 22.7l246.01 59.63L484.16 799.74A33.118 33.118 0 0 0 512 814.9c11.25 0 21.73-5.7 27.84-15.16l148.13-229.29 246.88-60.27a33.125 33.125 0 0 0 23.71-21.96 33.114 33.114 0 0 0-6.25-31.7L788.32 263.29c0.02-0.01-0.42-1.3-0.42-1.3l13.74-273.92c0.6-11.91-5.24-23.22-15.29-29.62a33.19 33.19 0 0 0-33.31-1.34L512.58 84.34l-241.6-127.38a33.189 33.189 0 0 0-15.52-3.86z m256.56 197.68c11 0 21.85-2.69 31.57-7.84l188.94-99.98-10.81 215.7c-0.9 17.38 4.82 34.25 16.07 47.51l129.2 152.23-193.76 46.97c-16.93 4.09-31.47 14.44-40.93 29.1l-120.29 186.2-120.28-186.2c-9.46-14.68-24.02-25.02-40.96-29.1L159.89 459.1 300.5 308.38a68.098 68.098 0 0 0 17.88-53.96l-23.11-209.58 185.12 98.07c9.74 5.17 20.6 7.87 31.63 7.87z m0 0M133.8 611.14m-28.04 0a28.04 28.04 0 1 1 56.08 0 28.04 28.04 0 1 1-56.08 0ZM182.88 716.75m-28.04 0a28.04 28.04 0 1 1 56.08 0 28.04 28.04 0 1 1-56.08 0ZM763 667.68m-28.04 0a28.04 28.04 0 1 1 56.08 0 28.04 28.04 0 1 1-56.08 0ZM312.47 459.96c-0.01 0-0.01-0.01-0.03-0.01l-4.09-3.48 0.36-0.42c-10.84-12.62-11.31-31.55-0.18-44.65l136.84-161.11c11.12-13.1 29.88-15.71 44.1-7.05l0.34-0.41 4.12 3.5 7.34 6.23 1.22 1.04c14.51 12.32 16.29 34.06 3.96 48.57l-136.84 161.1c-12.32 14.5-34.07 16.28-48.57 3.96l-1.22-1.03-7.35-6.24zM548.12 117.64c0-18.9-15.74-34.24-35.14-34.24-19.42 0-35.15 15.34-35.15 34.24 0 18.92 15.73 34.25 35.15 34.25 19.4 0 35.14-15.33 35.14-34.25zM775.63 306.33c15.63-9.35 20.68-29.68 11.28-45.41-9.42-15.74-29.72-20.91-45.35-11.56-15.64 9.35-20.68 29.68-11.27 45.42 9.41 15.73 29.71 20.9 45.34 11.55zM689.17 570.39c15.63-9.35 20.68-29.68 11.28-45.41-9.42-15.74-29.72-20.91-45.35-11.56-15.64 9.35-20.68 29.68-11.27 45.42 9.41 15.73 29.71 20.9 45.34 11.55zM385.04 561.45c9.43-15.57 3.74-36.3-12.73-46.29-16.5-9.99-37.51-5.46-46.94 10.12-9.45 15.58-3.75 36.3 12.75 46.29 16.48 9.99 37.49 5.45 46.92-10.12zM278.67 303.55c18.37 3.31 36.15-9.96 39.71-29.65 3.54-19.71-8.49-38.35-26.87-41.65-18.38-3.31-36.16 9.95-39.71 29.66-3.54 19.7 8.5 38.35 26.87 41.64z"  horiz-adv-x="1024" />

    
    <glyph glyph-name="xianxingzuanshi" unicode="&#59221;" d="M703.4 519.01v4.44h-0.45c-2.14 13.48-13.72 23.81-27.81 23.81H392.63c-14.08 0-25.67-10.33-27.81-23.81h-0.44v-13.64c0-15.6 12.65-28.25 28.25-28.25h282.51c15.6 0 28.26 12.65 28.26 28.25v9.2zM109.8 503.86c0-12.7-10.29-22.99-22.99-22.99s-22.99 10.29-22.99 22.99 10.29 22.99 22.99 22.99 22.99-10.29 22.99-22.99zM150.03 590.45c0-12.7-10.29-22.99-22.99-22.99s-22.99 10.29-22.99 22.99 10.29 22.99 22.99 22.99 22.99-10.29 22.99-22.99zM960.18 550.22c0-12.7-10.29-22.99-22.99-22.99s-23 10.29-23 22.99 10.29 22.99 23 22.99c12.7 0 22.99-10.3 22.99-22.99zM528.64 38.7c-17.03 0-33.23 7.35-44.44 20.17L174.4 412.73c-16.06 18.35-18.81 44.96-6.83 66.19 0 0.01 0.01 0.01 0.01 0.02l124.93 221.25c10.17 18.05 29.38 29.26 50.11 29.26h370.3c20.74 0 39.95-11.23 50.14-29.3l125.28-222.32c11.96-21.22 9.22-47.79-6.79-66.13L573.08 58.88a59.038 59.038 0 0 0-44.44-20.18z m-1.07 58.06c0.38 0.01 2.2 0.03 2.17 0L838.2 449.58 712.92 671.9h-370.3L217.7 450.65l309.81-353.89h0.06zM217.69 450.64z m0 0M358.63 696.55c0-16.13-13.49-29.21-30.13-29.21s-30.12 13.08-30.12 29.21c0 16.14 13.48 29.21 30.12 29.21 16.65 0.01 30.13-13.07 30.13-29.21zM755.52 696.55c0-16.13-13.14-29.21-29.35-29.21s-29.35 13.08-29.35 29.21c0 16.14 13.14 29.21 29.35 29.21 16.21 0.01 29.35-13.07 29.35-29.21zM896 450.53c0-16.75-13.58-30.34-30.34-30.34-16.76 0-30.34 13.59-30.34 30.34 0 16.76 13.58 30.34 30.34 30.34 16.76 0 30.34-13.58 30.34-30.34zM555.61 67.94c0-15.96-12.94-28.9-28.91-28.9s-28.91 12.94-28.91 28.9c0 15.97 12.94 28.91 28.91 28.91 15.97-0.01 28.91-12.95 28.91-28.91zM219.16 449.62c0-16.25-13.18-29.43-29.44-29.43s-29.44 13.18-29.44 29.43c0 16.26 13.18 29.44 29.44 29.44s29.44-13.18 29.44-29.44z"  horiz-adv-x="1024" />

    
    <glyph glyph-name="huiyuan8" unicode="&#59555;" d="M66.563 767.91h255.742v-63.871H66.563v63.872zM130.563 709.782h191.742v-710.226H130.563V709.782zM959.014 767.91l-636.71-768.354-186.23 180.286 503.157 588.41z"  horiz-adv-x="1024" />

    
    <glyph glyph-name="huiyuan" unicode="&#59205;" d="M702.976 836.608s-2.56-48.64 20.48-72.192c23.04-23.04 72.192-20.48 72.192-20.48s-48.128 1.536-71.168-21.504-21.504-71.168-21.504-71.168 1.536 49.664-22.016 73.728c-22.528 22.528-70.656 18.944-70.656 18.944s44.544-0.512 67.584 22.016c23.552 24.064 25.088 70.656 25.088 70.656zM898.048 733.696s-1.536-33.28 13.824-49.152c15.872-15.872 49.152-13.824 49.152-13.824s-32.768 1.024-48.64-14.848-14.848-48.64-14.848-48.64 1.024 33.792-14.848 50.176c-15.36 15.36-48.128 12.8-48.128 12.8s30.72-0.512 46.08 15.36c16.384 15.872 17.408 48.128 17.408 48.128zM796.16 642.048h-568.32l-212.992-212.992 497.152-497.664 497.152 497.664-212.992 212.992z m-39.936-247.808c0-5.12-3.584-9.216-8.192-9.216h-8.192c-11.776 0-11.264-2.048-16.896-9.216-42.496-55.808-210.432-276.48-210.432-276.48 0 0.512-0.512 0.512-0.512 1.024v-1.024s-168.448 220.672-210.432 276.48c-5.632 7.168-5.12 9.216-16.896 9.216h-8.192c-4.608 0-8.192 4.096-8.192 9.216v45.568c0 5.12 4.096 9.216 8.192 9.216h83.968c4.608 0 11.264-0.512 16.896-9.216l134.656-184.832v-0.512c0 0.512 0.512 0.512 0.512 0.512l134.656 184.832c5.632 8.192 12.288 9.216 16.896 9.216h83.968c4.608 0 8.192-4.096 8.192-9.216v-45.568z"  horiz-adv-x="1024" />

    
    <glyph glyph-name="huiyuan1" unicode="&#59326;" d="M512 896C229.195294 896 0 666.804706 0 384s229.195294-512 512-512 512 229.195294 512 512S794.624 896 512 896z m-48.368941-785.076706H346.352941V548.683294h-39.152941v39.755294h156.431059v-230.00847l193.957647 230.369882 195.764706-0.180706-389.722353-477.665882z"  horiz-adv-x="1024" />

    
    <glyph glyph-name="huiyuan2" unicode="&#59206;" d="M523.17041 644.772188c-88.63469 0-160.744008-72.109318-160.744008-160.744008 0-88.63469 72.109318-160.744008 160.744008-160.744008 88.63469 0 160.745031 72.109318 160.745031 160.744008C683.915441 572.662871 611.8051 644.772188 523.17041 644.772188zM523.17041 389.799076c-51.958372 0-94.229105 42.271756-94.229105 94.229105s42.270732 94.229105 94.229105 94.229105c51.958372 0 94.230128-42.270732 94.230128-94.229105S575.128783 389.799076 523.17041 389.799076zM960.613344 91.43675800000005L816.763099 242.02956800000004c22.072715 27.633361 40.203654 58.036811 54.073546 90.827635 20.259416 47.898917 30.531364 98.760305 30.531364 151.172001s-10.271948 103.273085-30.531364 151.172001c-19.561521 46.2473-47.558156 87.775112-83.21219 123.43017-35.654035 35.654035-77.181847 63.650669-123.429147 83.211167C616.296391 862.100936 565.435003 872.372883 513.023306 872.372883S409.750221 862.100936 361.851305 841.841519c-46.2473-19.561521-87.775112-47.558156-123.43017-83.211167-35.654035-35.654035-63.650669-77.181847-83.211167-123.43017-20.259416-47.898917-30.531364-98.760305-30.531364-151.172001s10.272971-103.273085 30.531364-151.172001c14.419408-34.090423 33.43653-65.606207 56.71163-94.105285L71.203692 91.43675800000005c-7.488555-7.839549-7.204076-20.265556 0.635473-27.754111l8.92016-8.521071c1.417279-2.081405 3.102664-4.045129 5.078669-5.834892l0.895393-0.810459c1.436722-1.300622 2.973728-2.433422 4.574179-3.430122l0.240477-0.229221c5.383614-5.143137 12.929474-6.618744 19.554358-4.500501 4.263094 0.35918 8.502651 1.533936 12.467963 3.574409 5.819542 2.994194 12.446473 5.218862 19.402909 5.218862 35.804461 0 64.934918-29.129434 64.934918-64.934918 0-7.493671-1.238201-14.758122-3.64911-21.60404-4.38589-12.455683-0.967024-27.220968 8.946766-35.861766 0.954745-1.565658 2.102894-3.044336 3.492544-4.370541l17.016559-15.231913c8.582469-8.198729 22.187325-8.91095 30.385031-0.327458l187.92609 193.615673c20.036335-3.1569 40.397059-4.751211 60.998259-4.751211 22.309098 0 44.336788 1.868557 65.975621 5.568832l188.719152-194.433294c8.198729-8.582469 21.802562-7.871271 30.385031 0.327458l17.016559 15.231913c1.388627 1.326205 2.537799 2.805906 3.492544 4.370541 9.91379 8.640798 13.332656 23.406083 8.946766 35.861766-2.409886 6.844895-3.64911 14.110369-3.64911 21.60404 0 35.805484 29.129434 64.934918 64.934918 64.934918 6.955412 0 13.583366-2.224668 19.402909-5.218862 3.965312-2.040473 8.205892-3.216251 12.467963-3.574409 6.624884-2.118244 14.171768-0.642636 19.554358 4.500501l0.240477 0.229221c1.600451 0.997724 3.13848 2.1295 4.574179 3.430122l0.895393 0.810459c1.976004 1.789763 3.66139 3.752464 5.078669 5.834892l8.92016 8.521071C967.81742 71.171202 968.101899 83.59720900000002 960.613344 91.43675800000005zM271.822872 10.27527299999997c-9.604752 47.563272-44.966121 85.899392-90.848101 99.781564l77.262688 80.884169c30.94171-26.959002 65.688071-48.683792 103.614869-64.726164 5.380544-2.275833 10.79895-4.417613 16.252149-6.440689L271.822872 10.27527299999997zM285.455357 256.460232c-60.785411 60.785411-94.26185 141.604088-94.26185 227.567949 0 85.963861 33.476439 166.782537 94.26185 227.567949 60.785411 60.785411 141.604088 94.26185 227.567949 94.26185s166.781514-33.476439 227.567949-94.26185c60.785411-60.785411 94.26185-141.604088 94.26185-227.567949 0-85.963861-33.476439-166.782537-94.26185-227.567949s-141.604088-94.26185-227.567949-94.26185S346.240769 195.67481999999995 285.455357 256.460232zM759.993141 10.27527299999997L652.16532 121.36744099999999c4.028757 1.548262 8.040117 3.15997 12.028964 4.847401 39.21207 16.585747 75.014484 39.257096 106.738 67.497277l79.909981-83.655282C804.960285 96.174666 769.597893 57.838544999999954 759.993141 10.27527299999997z"  horiz-adv-x="1024" />

    
    <glyph glyph-name="huiyuan3" unicode="&#59207;" d="M49.7 453.1c18.1-13.6 43.7-10 57.4 8.1l186.9 248c13.6 18.1 10 43.7-8.1 57.4-18.1 13.6-43.7 10-57.4-8.1l-186.9-248c-13.5-18.1-9.9-43.8 8.1-57.4zM541.2-31.1c16.8 15.2 18 41.1 2.8 57.8L104.3 511.9c-15.2 16.8-41.1 18-57.8 2.8-16.8-15.2-18-41.1-2.8-57.8l439.8-485.2c15.1-16.7 41-18 57.7-2.8z m434.7 485.3c-18.1-13.6-43.7-10-57.4 8.1l-186.9 248c-13.6 18.1-10 43.7 8.1 57.4 18.1 13.6 43.7 10 57.4-8.1l186.9-248c13.6-18.1 10-43.8-8.1-57.4zM484.4-30c-16.8 15.2-18 41.1-2.8 57.8L921.4 513c15.2 16.8 41.1 18 57.8 2.8 16.8-15.2 18-41.1 2.8-57.8L542.3-27.2c-15.2-16.7-41.1-18-57.9-2.8z m62.8 213.4c16.8 15.2 18 41.1 2.8 57.8L342.7 470c-15.2 16.8-41.1 18-57.8 2.8-16.8-15.2-18-41.1-2.8-57.8l207.4-228.8c15.1-16.7 41-18 57.7-2.8zM492.2 183.4c-16.8 15.2-18 41.1-2.8 57.8L696.7 470c15.2 16.8 41.1 18 57.8 2.8 16.8-15.2 18-41.1 2.8-57.8L550 186.2c-15.2-16.7-41.1-18-57.8-2.8zM805 734.9c0 22.6-18.3 41-41 41H261.6c-22.6 0-41-18.3-41-41 0-22.6 18.3-41 41-41H764c22.7 0 41 18.4 41 41z"  horiz-adv-x="1024" />

    
    <glyph glyph-name="huiyuan4" unicode="&#59208;" d="M704 841.6s6.4-84.8-71.2-77.6c18.4-3.2 72.8-13.6 71.2-76.8 1.6 16.8 19.2 69.6 68.8 72-24.8 3.2-67.2 33.6-68.8 82.4zM908.8 732s3.2-48.8-40.8-44.8c10.4-1.6 41.6-8 40.8-44 0.8 9.6 11.2 40 39.2 40.8-14.4 2.4-38.4 20-39.2 48zM807.2 649.6h-585.6l-218.4-218.4 509.6-503.2 509.6 503.2-215.2 218.4z m-41.6-260h-29.6l-224-293.6-216.8 294.4h-32v63.2h108l141.6-199.2 143.2 199.2h110.4v-64z"  horiz-adv-x="1024" />

    
    <glyph glyph-name="huiyuan5" unicode="&#59209;" d="M657.92 288.768c16.896 6.144 29.184 20.48 33.28 38.4l31.232 152.064c2.048 9.216-4.096 18.432-13.312 20.48-5.632 1.024-11.776-0.512-15.872-5.12l-60.416-62.464-81.92 135.168c-14.848 24.576-47.104 32.256-71.168 17.408-7.168-4.096-13.312-10.24-17.408-17.408l-82.944-136.704-61.952 64.512c-6.656 6.656-17.408 7.168-24.576 0.512-4.096-4.096-6.144-10.24-5.12-15.872l31.232-152.064c4.096-19.968 19.968-35.84 39.936-40.448 7.168-3.584 14.848-5.12 22.528-5.12h250.88c8.192-0.512 17.408 2.048 25.6 6.656z m316.928 89.088c-3.072-5.12-6.656-9.728-10.752-14.336l-387.584-443.904c-37.888-43.008-103.424-47.616-146.432-9.728-3.584 3.072-6.656 6.656-9.728 9.728l-387.584 443.904c-5.632 6.144-10.24 13.312-13.824 20.48-12.288 17.408-18.944 38.4-18.944 59.392 0 13.312 2.56 26.624 7.68 38.912l140.8 346.624c15.872 39.424 54.272 65.024 96.256 65.024h508.416c42.496 0 80.384-25.6 96.256-65.024l140.8-346.624c15.36-36.352 8.192-76.288-15.36-104.448z m-475.648 273.408c28.672 0 52.224 23.04 52.224 52.224 0 28.672-23.04 52.224-52.224 52.224-28.672 0-52.224-23.04-52.224-52.224s23.552-52.224 52.224-52.224z"  horiz-adv-x="1024" />

    
    <glyph glyph-name="huiyuan6" unicode="&#59210;" d="M142.628571-0.694857h724.114286c28.525714 0 51.712-23.990857 51.712-53.577143 0-29.622857-23.186286-53.613714-51.712-53.613714H142.628571c-28.525714 0-51.712 24.027429-51.712 53.613714 0 29.586286 23.149714 53.577143 51.712 53.577143zM1003.154286 559.762286l-77.385143-472.941715c-4.205714-25.782857-25.746286-44.617143-50.980572-44.617142H134.619429c-25.234286 0-46.811429 18.834286-50.980572 44.617142L6.290286 559.725714C-1.097143 604.891429 46.006857 638.208 83.894857 614.656l209.261714-130.121143L464.822857 859.867429a50.980571 50.980571 0 0 0 93.805714-0.731429l163.401143-370.944 203.483429 126.500571c37.888 23.515429 84.955429-9.801143 77.604571-54.930285z"  horiz-adv-x="1024" />

    
    <glyph glyph-name="huiyuan7" unicode="&#59211;" d="M943.945509-128H241.762418a112.826284 112.826284 0 0 0-108.927815 83.587765L3.726478 471.848276a112.654292 112.654292 0 0 0 156.970714 130.197404l155.537453-73.268288a19.549676 19.549676 0 0 1 25.340049 8.198251l152.097628 299.207508a112.482301 112.482301 0 0 0 197.274005 1.719912l153.416227-301.443394a19.435015 19.435015 0 0 1 25.110728-7.510286l155.537453 73.268288a112.539632 112.539632 0 0 0 156.741393-130.828039l-128.993465-515.228563a112.826284 112.826284 0 0 0-108.813154-84.161069z m-831.291217 647.833845a19.893659 19.893659 0 0 1-12.268711-4.758426 19.033702 19.033702 0 0 1-6.478339-20.06565l129.394778-516.547163a19.377685 19.377685 0 0 1 18.632389-13.873964h701.781779a19.205694 19.205694 0 0 1 18.74705 14.504599l129.280117 515.228563a19.205694 19.205694 0 0 1-6.077026 20.868276 18.804381 18.804381 0 0 1-20.868276 2.751861L909.2606 444.501661a112.940945 112.940945 0 0 0-146.307254 46.896291l-0.802626 1.605252-153.014915 300.81276a18.632389 18.632389 0 0 1-16.224511 8.427573 19.148363 19.148363 0 0 1-17.199129-10.032825L423.729199 492.888543a113.284927 113.284927 0 0 0-147.10988-48.444212L121.081866 517.712619a18.632389 18.632389 0 0 1-8.599565 2.350547zM726.605854 57.979911H459.331395a46.494978 46.494978 0 0 0 0 92.932625h267.38912a46.494978 46.494978 0 1 0 0-92.932625z"  horiz-adv-x="1186" />

    
    <glyph glyph-name="yijian" unicode="&#59204;" d="M381.244-127.99L126.908 189.705s-12.85 118.537 101.721 68.604c66.11-29.667 89.703-91.94 89.703-91.94l2.365 483.927s68.347 101.913 127.807 0l1.087-306.38s73.909 100.572 160.86-7.031c0 0 65.216 109.585 156.836-5.307 0 0 64.958 126.72 130.172-10.997v-384.636s-3.772-29.985-56.647-63.935H381.244zM383.481 896C241.608 896 126.524 780.916 126.524 639.043c0-95.199 52.364-177.357 129.28-221.728v79.408c-39.77 35.23-65.344 86.057-65.344 143.343 0 106.005 85.993 192 191.998 192s191.998-85.995 191.998-192c0-56.135-24.55-106.197-62.912-141.298v-81.26c76.66 44.498 128.894 126.527 128.894 221.535C640.438 780.916 525.355 896 383.48 896z"  horiz-adv-x="1024" />

    
    <glyph glyph-name="qq" unicode="&#59202;" d="M989.220956 212.119085c-22.108252 124.734214-114.976559 206.446041-114.97656 206.446042 13.271775 113.236558-35.380027 133.331867-35.380027 133.331867-10.235302 350.354387-320.501423 344.247324-327.052016 344.076735-6.516476 0.170588-316.850832 6.277652-327.017899-344.076735 0 0-48.651802-20.09531-35.380027-133.331867 0 0-92.868307-81.711828-114.976559-206.446042 0 0-11.804715-210.744868 106.140081-25.792961 0 0 26.509432-70.248289 75.161235-133.331867 0 0-86.965949-28.692963-79.596532-103.24008 0 0-2.968238-83.110652 185.702496-77.413 0 0 132.649514 10.030596 172.464838 64.51652H529.348837c39.815325-54.485924 172.464839-64.51652 172.464839-64.51652 188.602498-5.697651 185.702496 77.413001 185.702495 77.413 7.3353 74.547116-79.596532 103.240079-79.596531 103.24008 48.651802 63.083578 75.161234 133.331867 75.161234 133.331867 117.876561-184.951907 106.140082 25.792961 106.140082 25.792961z"  horiz-adv-x="1024" />

    
    <glyph glyph-name="saoma" unicode="&#59203;" d="M308.084964-1.187478H126.811572v181.454349a63.334851 63.334851 0 1 1-126.669702 0v-183.671068a123.231525 123.231525 0 0 1 124.543461-124.5887H308.084964a63.334851 63.334851 0 0 1 0 126.669702zM63.386243 524.491787a63.334851 63.334851 0 0 1 63.334851 63.334851V769.190509H308.084964a63.334851 63.334851 0 0 1 0 126.669702H124.549614A123.231525 123.231525 0 0 1 0.006153 771.407228V587.917117a63.334851 63.334851 0 0 1 63.38009-63.42533zM63.386243 310.41999h897.183406a63.334851 63.334851 0 1 1 0 126.669703H63.386243a63.334851 63.334851 0 0 1 0-126.669703zM899.406278 895.995928h-183.671068a63.334851 63.334851 0 1 1 0-126.669702h181.273392v-181.409109a63.334851 63.334851 0 1 1 126.669702 0V771.407228A123.276764 123.276764 0 0 1 899.406278 895.995928zM960.569649 243.601722a63.334851 63.334851 0 0 1-63.334851-63.334851v-181.273392h-181.499588a63.334851 63.334851 0 1 1 0-126.669702h183.671068a123.276764 123.276764 0 0 1 124.588701 124.5887v183.354394a63.334851 63.334851 0 0 1-63.42533 63.334851z"  horiz-adv-x="1024" />

    
    <glyph glyph-name="V" unicode="&#59765;" d="M512 896a512 512 0 1 0 0-1024A512 512 0 0 0 512 896M515.072 255.808L401.92 640H256v-73.344h65.024l133.248-438.976 78.08-0.064 207.552 438.912 69.888 0.512L808.704 640h-111.296z"  horiz-adv-x="1024" />

    
    <glyph glyph-name="v" unicode="&#59201;" d="M892.688 529.71H881.17c-15.55 0-15.55-4.032-23.037-11.519C804.57 446.201 574.2 153.053 574.2 153.053S347.86 446.2 290.268 518.19c-7.487 7.487-7.487 11.519-23.037 11.519h-11.519c-7.487 0-11.519 4.031-11.519 11.518v61.049c0 7.487 4.032 11.518 11.519 11.518h115.186c7.487 0 15.55 0 23.037-11.518l184.297-247.073 180.265 247.073c7.487 11.518 15.55 11.518 23.037 11.518H896.72c7.487 0 11.518-4.031 11.518-11.518v-61.049c-4.031-4.031-8.063-11.518-15.55-11.518z m-59.32 351.892H319.064L0.576 508.976l575.928-623.73 575.928 623.73L833.368 881.602z"  horiz-adv-x="1152" />

    
    <glyph glyph-name="V-copy" unicode="&#61140;" d="M512 896a512 512 0 1 0 0-1024A512 512 0 0 0 512 896M515.072 255.808L401.92 640H256v-73.344h65.024l133.248-438.976 78.08-0.064 207.552 438.912 69.888 0.512L808.704 640h-111.296z"  horiz-adv-x="1024" />

    
    <glyph glyph-name="v-copy" unicode="&#61141;" d="M892.688 529.71H881.17c-15.55 0-15.55-4.032-23.037-11.519C804.57 446.201 574.2 153.053 574.2 153.053S347.86 446.2 290.268 518.19c-7.487 7.487-7.487 11.519-23.037 11.519h-11.519c-7.487 0-11.519 4.031-11.519 11.518v61.049c0 7.487 4.032 11.518 11.519 11.518h115.186c7.487 0 15.55 0 23.037-11.518l184.297-247.073 180.265 247.073c7.487 11.518 15.55 11.518 23.037 11.518H896.72c7.487 0 11.518-4.031 11.518-11.518v-61.049c-4.031-4.031-8.063-11.518-15.55-11.518z m-59.32 351.892H319.064L0.576 508.976l575.928-623.73 575.928 623.73L833.368 881.602z"  horiz-adv-x="1152" />

    
    <glyph glyph-name="shangdian1" unicode="&#59200;" d="M1050.466462 638.345846l-81.408 159.547077A112.600615 112.600615 0 0 1 868.745846 859.372308H234.023385a112.600615 112.600615 0 0 1-100.312616-61.44L52.302769 638.345846c-45.213538-103.581538 21.661538-225.988923 134.340923-235.126154a175.025231 175.025231 0 0 1 159.271385 76.051693 36.509538 36.509538 0 0 0 60.573538 0A174.985846 174.985846 0 0 1 551.384615 402.589538c60.258462 0 113.348923 30.404923 144.896 76.681847a36.509538 36.509538 0 0 0 60.573539 0 175.025231 175.025231 0 0 1 159.271384-76.091077c112.64 9.176615 179.554462 131.544615 134.340924 235.165538z m-118.114462-307.121231a248.398769 248.398769 0 0 0-182.665846 50.018462 37.533538 37.533538 0 0 1-46.276923-0.039385 248.438154 248.438154 0 0 0-304.049231 0 37.533538 37.533538 0 0 1-46.316308 0 248.438154 248.438154 0 0 0-182.350769-50.018461 36.470154 36.470154 0 0 1-40.96-36.233846v-311.965539c0-41.038769 32.374154-74.318769 72.349539-74.318769H900.726154c39.975385 0 72.349538 33.28 72.349538 74.318769v311.847385a36.430769 36.430769 0 0 1-40.723692 36.391384zM780.209231 54.350769H322.56a36.785231 36.785231 0 0 0-36.706462 36.667077c0 20.164923 16.541538 36.667077 36.667077 36.667077H780.209231c20.164923 0 36.667077-16.502154 36.667077-36.627692 0-20.204308-16.502154-36.706462-36.627693-36.706462z"  horiz-adv-x="1102" />

    
    <glyph glyph-name="shangdian1-copy" unicode="&#61138;" d="M1050.466462 638.3458459999999l-81.408 159.547077A112.600615 112.600615 0 0 1 868.745846 859.372308H234.023385a112.600615 112.600615 0 0 1-100.312616-61.44L52.302769 638.3458459999999c-45.213538-103.581538 21.661538-225.988923 134.340923-235.126154a175.025231 175.025231 0 0 1 159.271385 76.051693 36.509538 36.509538 0 0 0 60.573538 0A174.985846 174.985846 0 0 1 551.384615 402.589538c60.258462 0 113.348923 30.404923 144.896 76.681847a36.509538 36.509538 0 0 0 60.573539 0 175.025231 175.025231 0 0 1 159.271384-76.091077c112.64 9.176615 179.554462 131.544615 134.340924 235.165538z m-118.114462-307.121231a248.398769 248.398769 0 0 0-182.665846 50.018462 37.533538 37.533538 0 0 1-46.276923-0.039385 248.438154 248.438154 0 0 0-304.049231 0 37.533538 37.533538 0 0 1-46.316308 0 248.438154 248.438154 0 0 0-182.350769-50.018461 36.470154 36.470154 0 0 1-40.96-36.233846v-311.965539c0-41.038769 32.374154-74.318769 72.349539-74.318769H900.726154c39.975385 0 72.349538 33.28 72.349538 74.318769v311.847385a36.430769 36.430769 0 0 1-40.723692 36.391384zM780.209231 54.350769000000014H322.56a36.785231 36.785231 0 0 0-36.706462 36.667077c0 20.164923 16.541538 36.667077 36.667077 36.667077H780.209231c20.164923 0 36.667077-16.502154 36.667077-36.627692 0-20.204308-16.502154-36.706462-36.627693-36.706462z"  horiz-adv-x="1102" />

    
    <glyph glyph-name="shangdian1-copy-copy" unicode="&#61139;" d="M1050.466462 638.3458459999999l-81.408 159.547077A112.600615 112.600615 0 0 1 868.745846 859.372308H234.023385a112.600615 112.600615 0 0 1-100.312616-61.44L52.302769 638.3458459999999c-45.213538-103.581538 21.661538-225.988923 134.340923-235.126154a175.025231 175.025231 0 0 1 159.271385 76.051693 36.509538 36.509538 0 0 0 60.573538 0A174.985846 174.985846 0 0 1 551.384615 402.589538c60.258462 0 113.348923 30.404923 144.896 76.681847a36.509538 36.509538 0 0 0 60.573539 0 175.025231 175.025231 0 0 1 159.271384-76.091077c112.64 9.176615 179.554462 131.544615 134.340924 235.165538z m-118.114462-307.121231a248.398769 248.398769 0 0 0-182.665846 50.018462 37.533538 37.533538 0 0 1-46.276923-0.039385 248.438154 248.438154 0 0 0-304.049231 0 37.533538 37.533538 0 0 1-46.316308 0 248.438154 248.438154 0 0 0-182.350769-50.018461 36.470154 36.470154 0 0 1-40.96-36.233846v-311.965539c0-41.038769 32.374154-74.318769 72.349539-74.318769H900.726154c39.975385 0 72.349538 33.28 72.349538 74.318769v311.847385a36.430769 36.430769 0 0 1-40.723692 36.391384zM780.209231 54.350769000000014H322.56a36.785231 36.785231 0 0 0-36.706462 36.667077c0 20.164923 16.541538 36.667077 36.667077 36.667077H780.209231c20.164923 0 36.667077-16.502154 36.667077-36.627692 0-20.204308-16.502154-36.706462-36.627693-36.706462z"  horiz-adv-x="1102" />

    
    <glyph glyph-name="yundongdaqia" unicode="&#59198;" d="M575.49710222 621.2357688899999c-39.03032889 22.71914667-63.49710222 64.66218667-63.49710222 109.51793777 0 69.90506667 56.50659555 126.41166222 126.41166222 126.41166221s126.41166222-56.50659555 126.41166223-126.41166221c0-45.43829333-23.88423111-86.79879111-63.49710223-109.51793779-38.44778667-22.71914667-86.79879111-22.71914667-125.82912 0z m25.04931556 43.69066666c36.11761778-20.97152 82.72099555-8.73813333 103.69251555 27.96202666s8.73813333 82.72099555-27.96202666 103.69251556c-36.11761778 20.97152-82.72099555 8.73813333-103.69251556-27.96202666-20.97152-36.11761778-8.15559111-82.72099555 27.96202667-103.69251556zM850.45703111 592.69119999c-33.78744889 24.46677333-61.16693333 0-61.16693333 0-78.06065778-99.61472-140.39267555-69.90506667-155.53877333-66.40981333-14.56355555 3.49525333-96.70200889 48.93354667-114.76081778 57.08913778-17.47626667 8.15559111-40.77795555 24.46677333-118.25607112 19.22389333-87.38133333-7.57304889-163.69436445-88.54641778-171.26741333-121.75132444-8.15559111-33.78744889 50.09863111-66.40981333 74.56540445-40.77795556C389.08359111 551.91324444 465.39662222 507.05749333 465.39662222 507.05749333s-51.26371555-94.37184-107.18776889-200.39452444C267.33226667 193.64977777000001 205.00024889 240.25315554999997 171.2128 254.81671111000003c-33.78744889 14.56355555-64.07964445-25.04931555-64.07964445-50.09863112s54.75896889-64.66218667 145.05301334-64.66218666c90.29404445 0 161.36419555 75.73048889 170.10232889 86.21624888 26.2144-1.74762667 138.06250667-79.22574222 152.62606222-92.0416711 13.98101333-12.81592889 69.90506667-138.64504889 74.56540445-146.21809778 4.66033778-7.57304889 27.96202667-25.63185778 55.92405333-11.65084446 27.96202667 13.98101333 24.46677333 49.51608889 24.46677333 49.5160889s-49.51608889 129.32437333-81.55591111 161.94673778c-32.03982222 32.62236445-129.90691555 95.53692445-129.90691555 95.53692444s69.90506667 128.74183111 86.7987911 158.45148445c170.68487111-44.27320889 251.07569778 92.62421333 251.07569778 92.62421333s27.37948445 33.78744889-5.82542222 58.25422222zM842.30144 444.14293333c-57.08913778-47.18592-128.15928889-71.07015111-211.46282667-59.41930667-15.72864-28.54456889-30.87473778-57.08913778-46.60337778-85.05116445 15.72864-10.48576 31.45728-21.55406222 46.60337778-33.20490666 23.30168889-16.89372445 40.77795555-31.45728 53.01134222-43.69066668 12.23338667-12.23338667 23.30168889-29.70965333 36.11761778-52.4288 6.40796445-11.65084445 12.81592889-24.46677333 19.22389334-38.44778666 12.23338667-26.2144 23.88423111-53.01134222 34.36999111-80.39082666 1.74762667-3.49525333 2.33016889-6.40796445 2.91271111-7.57304889l2.33016889-6.40796445 0.58254222-6.99050666c1.74762667-17.47626667-1.16508445-35.53507555-7.57304889-51.84625778-8.15559111-20.97152-24.46677333-38.44778667-44.85575111-48.93354666-47.76846222-23.30168889-101.36234667-3.49525333-121.75132445 31.45728-2.91271111 4.66033778-30.29219555 63.49710222-36.70016 77.47811555l-4.07779555 8.15559111c-7.57304889 16.31118222-14.56355555 29.70965333-19.80643555 39.6128711-2.33016889 4.07779555-4.66033778 8.15559111-6.99050667 11.65084446-0.58254222 0.58254222 0 0.58254222 2.33016889-1.74762667-5.24288 4.66033778-36.70016 26.79694222-64.66218667 44.85575111-13.39847111 8.73813333-27.37948445 16.89372445-41.36049778 25.04931556-11.06830222-9.90321778-23.88423111-19.80643555-38.44778667-29.70965334-44.27320889-29.70965333-92.62421333-47.76846222-143.88792888-47.76846222-103.69251555 0-195.73418667 47.76846222-195.73418667 115.34336 0 62.91456 66.40981333 126.41166222 135.14979555 96.70200889 4.66033778-1.74762667 18.64135111-8.73813333 20.38897778-9.90321779 36.11761778-16.89372445 58.83676445-12.81592889 104.27505778 43.69066668l55.92405334 104.8576c-9.90321778-9.32067555-19.22389333-19.22389333-27.37948445-30.29219556l-3.49525333-4.07779555c-60.00184889-64.07964445-180.58808889 2.91271111-160.78165334 87.38133333 15.72864 66.99235555 120.00369778 152.04352 217.28824889 160.78165334 55.92405333 3.49525333 93.78929778-1.74762667 125.24657778-15.72864 5.82542222-2.33016889 20.97152-9.90321778 17.47626667-8.15559112 4.66033778-2.33016889 11.65084445-5.82542222 23.30168888-12.23338666 1.74762667-1.16508445 25.04931555-13.39847111 32.62236445-16.89372446l2.91271111-1.16508443c13.98101333-7.57304889 25.63185778-13.39847111 34.36999111-17.47626667 7.57304889-3.49525333 13.39847111-6.40796445 11.65084445-5.82542222 2.91271111-0.58254222 11.06830222-3.49525333 12.81592888-3.49525334 25.63185778-6.99050667 51.26371555 1.16508445 90.87658667 51.84625778l2.91271111 3.49525334 3.49525334 2.91271111c4.66033778 4.07779555 11.06830222 8.73813333 19.22389333 12.81592889 32.03982222 16.31118222 69.90506667 16.31118222 105.44014222-9.32067556 15.14609778-11.06830222 26.2144-25.04931555 32.03982223-40.77795556 9.90321778-26.2144 5.82542222-50.68117333-5.82542223-73.40032-2.91271111-5.82542222-5.82542222-10.48576-8.73813333-13.98101334-9.90321778-17.47626667-27.96202667-39.61287111-54.75896889-61.74947554z"  horiz-adv-x="1024" />

    
    <glyph glyph-name="yundongdaqia-copy" unicode="&#61135;" d="M575.49710222 621.2357688899999c-39.03032889 22.71914667-63.49710222 64.66218667-63.49710222 109.51793777 0 69.90506667 56.50659555 126.41166222 126.41166222 126.41166221s126.41166222-56.50659555 126.41166223-126.41166221c0-45.43829333-23.88423111-86.79879111-63.49710223-109.51793779-38.44778667-22.71914667-86.79879111-22.71914667-125.82912 0z m25.04931556 43.69066666c36.11761778-20.97152 82.72099555-8.73813333 103.69251555 27.96202666s8.73813333 82.72099555-27.96202666 103.69251556c-36.11761778 20.97152-82.72099555 8.73813333-103.69251556-27.96202666-20.97152-36.11761778-8.15559111-82.72099555 27.96202667-103.69251556zM850.45703111 592.69119999c-33.78744889 24.46677333-61.16693333 0-61.16693333 0-78.06065778-99.61472-140.39267555-69.90506667-155.53877333-66.40981333-14.56355555 3.49525333-96.70200889 48.93354667-114.76081778 57.08913778-17.47626667 8.15559111-40.77795555 24.46677333-118.25607112 19.22389333-87.38133333-7.57304889-163.69436445-88.54641778-171.26741333-121.75132444-8.15559111-33.78744889 50.09863111-66.40981333 74.56540445-40.77795556C389.08359111 551.91324444 465.39662222 507.05749333 465.39662222 507.05749333s-51.26371555-94.37184-107.18776889-200.39452444C267.33226667 193.64977777000001 205.00024889 240.25315554999997 171.2128 254.81671111000003c-33.78744889 14.56355555-64.07964445-25.04931555-64.07964445-50.09863112s54.75896889-64.66218667 145.05301334-64.66218666c90.29404445 0 161.36419555 75.73048889 170.10232889 86.21624888 26.2144-1.74762667 138.06250667-79.22574222 152.62606222-92.0416711 13.98101333-12.81592889 69.90506667-138.64504889 74.56540445-146.21809778 4.66033778-7.57304889 27.96202667-25.63185778 55.92405333-11.65084446 27.96202667 13.98101333 24.46677333 49.51608889 24.46677333 49.5160889s-49.51608889 129.32437333-81.55591111 161.94673778c-32.03982222 32.62236445-129.90691555 95.53692445-129.90691555 95.53692444s69.90506667 128.74183111 86.7987911 158.45148445c170.68487111-44.27320889 251.07569778 92.62421333 251.07569778 92.62421333s27.37948445 33.78744889-5.82542222 58.25422222zM842.30144 444.14293333c-57.08913778-47.18592-128.15928889-71.07015111-211.46282667-59.41930667-15.72864-28.54456889-30.87473778-57.08913778-46.60337778-85.05116445 15.72864-10.48576 31.45728-21.55406222 46.60337778-33.20490666 23.30168889-16.89372445 40.77795555-31.45728 53.01134222-43.69066668 12.23338667-12.23338667 23.30168889-29.70965333 36.11761778-52.4288 6.40796445-11.65084445 12.81592889-24.46677333 19.22389334-38.44778666 12.23338667-26.2144 23.88423111-53.01134222 34.36999111-80.39082666 1.74762667-3.49525333 2.33016889-6.40796445 2.91271111-7.57304889l2.33016889-6.40796445 0.58254222-6.99050666c1.74762667-17.47626667-1.16508445-35.53507555-7.57304889-51.84625778-8.15559111-20.97152-24.46677333-38.44778667-44.85575111-48.93354666-47.76846222-23.30168889-101.36234667-3.49525333-121.75132445 31.45728-2.91271111 4.66033778-30.29219555 63.49710222-36.70016 77.47811555l-4.07779555 8.15559111c-7.57304889 16.31118222-14.56355555 29.70965333-19.80643555 39.6128711-2.33016889 4.07779555-4.66033778 8.15559111-6.99050667 11.65084446-0.58254222 0.58254222 0 0.58254222 2.33016889-1.74762667-5.24288 4.66033778-36.70016 26.79694222-64.66218667 44.85575111-13.39847111 8.73813333-27.37948445 16.89372445-41.36049778 25.04931556-11.06830222-9.90321778-23.88423111-19.80643555-38.44778667-29.70965334-44.27320889-29.70965333-92.62421333-47.76846222-143.88792888-47.76846222-103.69251555 0-195.73418667 47.76846222-195.73418667 115.34336 0 62.91456 66.40981333 126.41166222 135.14979555 96.70200889 4.66033778-1.74762667 18.64135111-8.73813333 20.38897778-9.90321779 36.11761778-16.89372445 58.83676445-12.81592889 104.27505778 43.69066668l55.92405334 104.8576c-9.90321778-9.32067555-19.22389333-19.22389333-27.37948445-30.29219556l-3.49525333-4.07779555c-60.00184889-64.07964445-180.58808889 2.91271111-160.78165334 87.38133333 15.72864 66.99235555 120.00369778 152.04352 217.28824889 160.78165334 55.92405333 3.49525333 93.78929778-1.74762667 125.24657778-15.72864 5.82542222-2.33016889 20.97152-9.90321778 17.47626667-8.15559112 4.66033778-2.33016889 11.65084445-5.82542222 23.30168888-12.23338666 1.74762667-1.16508445 25.04931555-13.39847111 32.62236445-16.89372446l2.91271111-1.16508443c13.98101333-7.57304889 25.63185778-13.39847111 34.36999111-17.47626667 7.57304889-3.49525333 13.39847111-6.40796445 11.65084445-5.82542222 2.91271111-0.58254222 11.06830222-3.49525333 12.81592888-3.49525334 25.63185778-6.99050667 51.26371555 1.16508445 90.87658667 51.84625778l2.91271111 3.49525334 3.49525334 2.91271111c4.66033778 4.07779555 11.06830222 8.73813333 19.22389333 12.81592889 32.03982222 16.31118222 69.90506667 16.31118222 105.44014222-9.32067556 15.14609778-11.06830222 26.2144-25.04931555 32.03982223-40.77795556 9.90321778-26.2144 5.82542222-50.68117333-5.82542223-73.40032-2.91271111-5.82542222-5.82542222-10.48576-8.73813333-13.98101334-9.90321778-17.47626667-27.96202667-39.61287111-54.75896889-61.74947554z"  horiz-adv-x="1024" />

    
    <glyph glyph-name="shoujidaka-copy" unicode="&#61133;" d="M730.763636 828.509091H302.545455C223.418182 828.509091 160.581818 765.672727 160.581818 686.545455v-586.472728c0-79.127273 62.836364-141.963636 141.963637-141.963636h428.218181c79.127273 0 141.963636 62.836364 141.963637 141.963636V686.545455c0 79.127273-62.836364 141.963636-141.963637 141.963636zM302.545455 777.309091h428.218181c51.2 0 90.763636-39.563636 90.763637-90.763636v-484.072728H211.781818V686.545455c0 51.2 39.563636 90.763636 90.763637 90.763636z m428.218181-768H302.545455c-51.2 0-90.763636 41.890909-90.763637 90.763636V151.27272700000003h609.745455v-51.2c0-48.872727-41.890909-90.763636-90.763637-90.763636zM574.836364 109.38181799999995h-118.690909c-13.963636 0-25.6-11.636364-25.6-25.6S442.181818 58.18181800000002 456.145455 58.18181800000002h118.690909c13.963636 0 25.6 11.636364 25.6 25.6s-11.636364 25.6-25.6 25.6zM414.254545 423.563636l74.472728-46.545454c4.654545-2.327273 9.309091-4.654545 13.963636-4.654546 6.981818 0 13.963636 2.327273 18.618182 9.309091l107.054545 128c9.309091 11.636364 6.981818 27.927273-2.327272 34.909091-11.636364 9.309091-27.927273 6.981818-34.909091-2.327273l-93.090909-109.381818-55.854546 34.909091c-11.636364 6.981818-27.927273 4.654545-34.909091-9.309091-9.309091-11.636364-6.981818-27.927273 6.981818-34.909091zM518.981818 251.34545500000002c123.345455 0 223.418182 100.072727 223.418182 223.418181s-100.072727 223.418182-223.418182 223.418182-223.418182-100.072727-223.418182-223.418182 100.072727-223.418182 223.418182-223.418181z m0 397.963636c95.418182 0 172.218182-76.8 172.218182-172.218182 0-95.418182-76.8-172.218182-172.218182-172.218182-95.418182 0-172.218182 76.8-172.218182 172.218182 0 93.090909 76.8 172.218182 172.218182 172.218182z"  horiz-adv-x="1024" />

    
    <glyph glyph-name="chongwu3-copy" unicode="&#61134;" d="M310.145 396.043c0 20.825 16.883 37.708 37.708 37.708s37.708-16.883 37.708-37.708-16.883-37.708-37.708-37.708S310.145 375.21799999999996 310.145 396.043zM612.234 396.043c0 20.825 16.883 37.708 37.708 37.708s37.708-16.883 37.708-37.708-16.883-37.708-37.708-37.708S612.234 375.21799999999996 612.234 396.043zM589.9 238.76300000000003c-22.483-22.993-54.253-16.247-66.87-12.275-0.227 0.07-0.433 0.134-0.621 0.191l0.315 28.33c18.729 4.333 32.411 18.033 32.411 34.272 0 19.722-20.174 24.72-45.063 24.72s-45.065-4.998-45.065-24.72c0-16.191 13.606-29.857 32.249-34.235l-0.336-29.993c-3.991-1.68-9.872-3.592-16.898-4.195-17.308-1.483-33.707 5.421-48.765 20.536-4.963 4.978-13.024 4.994-18.009 0.03-4.981-4.964-4.996-13.026-0.032-18.008 22.464-22.546 45.172-28.219 62.333-28.219 2.884 0 5.611 0.162 8.154 0.429 12.575 1.322 22.346 5.34 27.905 8.159 1.024-0.635 2.154-1.134 3.369-1.465l0.412-0.128c11.207-3.525 22.427-5.31 33.382-5.31 0.591 0 1.185 0.006 1.773 0.018 22.659 0.4 42.563 8.718 57.562 24.054 4.917 5.028 4.828 13.091-0.2 18.008C602.876 243.88099999999997 594.816 243.788 589.9 238.76300000000003zM856.698 603.056c-54.188 34.195-118.687 65.227-163.362 70.26-16.269 7.162-35.03 13.379-56.23 18.61-43.194 10.655-95.315 16.524-146.763 16.524-53.297 0-103.1-6.036-144.021-17.455-24.171-6.743-44.696-15.202-61.493-25.3-37.279-13.088-79.525-35.152-116.876-58.723C79.878 551.394 50.161 470.296 77.7 418.624c9.208-17.276 30.314-29.449 56.619-35.284-0.106-0.457-0.216-0.903-0.321-1.363-14.147-61.599-0.991-120.068 38.046-169.087 32.386-40.669 82.33-74.297 144.43-97.249 58.021-21.45 123.901-32.786 190.517-32.786 65.597 0 130.747 11.526 188.408 33.337 60.323 22.813 109.499 55.905 142.211 95.699 39.466 48.012 54.181 104.546 42.552 163.488-0.229 1.163-0.47 2.333-0.714 3.506 30.622 2.527 56.366 14.929 67.503 35.822C974.49 466.38 944.772 547.477 856.698 603.056zM795.312 246.66099999999994c-54.453-66.247-167.627-109.051-288.32-109.051-124.534 0-239.194 42.938-292.115 109.389-28.686 36.019-37.941 77.31-27.514 122.721 0.818 3.564 1.662 7.073 2.519 10.555 46.742 4.394 95.604 25.83 121.835 68.867 50.18 82.327 79.753 148.503 73.865 194.958 31.104 6.295 66.789 9.597 104.76 9.597 55.346 0 107.935-7.031 148.494-18.816-0.656-45.244 45.276-103.399 93.536-182.579 21.411-35.128 54.859-56.961 89.289-67.125 1.895-7.079 3.502-13.907 4.782-20.396C834.915 321.83900000000006 824.442 282.097 795.312 246.66099999999994z"  horiz-adv-x="1024" />

    
    <glyph glyph-name="chongwu3" unicode="&#59197;" d="M310.145 396.043c0 20.825 16.883 37.708 37.708 37.708s37.708-16.883 37.708-37.708-16.883-37.708-37.708-37.708S310.145 375.21799999999996 310.145 396.043zM612.234 396.043c0 20.825 16.883 37.708 37.708 37.708s37.708-16.883 37.708-37.708-16.883-37.708-37.708-37.708S612.234 375.21799999999996 612.234 396.043zM589.9 238.76300000000003c-22.483-22.993-54.253-16.247-66.87-12.275-0.227 0.07-0.433 0.134-0.621 0.191l0.315 28.33c18.729 4.333 32.411 18.033 32.411 34.272 0 19.722-20.174 24.72-45.063 24.72s-45.065-4.998-45.065-24.72c0-16.191 13.606-29.857 32.249-34.235l-0.336-29.993c-3.991-1.68-9.872-3.592-16.898-4.195-17.308-1.483-33.707 5.421-48.765 20.536-4.963 4.978-13.024 4.994-18.009 0.03-4.981-4.964-4.996-13.026-0.032-18.008 22.464-22.546 45.172-28.219 62.333-28.219 2.884 0 5.611 0.162 8.154 0.429 12.575 1.322 22.346 5.34 27.905 8.159 1.024-0.635 2.154-1.134 3.369-1.465l0.412-0.128c11.207-3.525 22.427-5.31 33.382-5.31 0.591 0 1.185 0.006 1.773 0.018 22.659 0.4 42.563 8.718 57.562 24.054 4.917 5.028 4.828 13.091-0.2 18.008C602.876 243.88099999999997 594.816 243.788 589.9 238.76300000000003zM856.698 603.056c-54.188 34.195-118.687 65.227-163.362 70.26-16.269 7.162-35.03 13.379-56.23 18.61-43.194 10.655-95.315 16.524-146.763 16.524-53.297 0-103.1-6.036-144.021-17.455-24.171-6.743-44.696-15.202-61.493-25.3-37.279-13.088-79.525-35.152-116.876-58.723C79.878 551.394 50.161 470.296 77.7 418.624c9.208-17.276 30.314-29.449 56.619-35.284-0.106-0.457-0.216-0.903-0.321-1.363-14.147-61.599-0.991-120.068 38.046-169.087 32.386-40.669 82.33-74.297 144.43-97.249 58.021-21.45 123.901-32.786 190.517-32.786 65.597 0 130.747 11.526 188.408 33.337 60.323 22.813 109.499 55.905 142.211 95.699 39.466 48.012 54.181 104.546 42.552 163.488-0.229 1.163-0.47 2.333-0.714 3.506 30.622 2.527 56.366 14.929 67.503 35.822C974.49 466.38 944.772 547.477 856.698 603.056zM795.312 246.66099999999994c-54.453-66.247-167.627-109.051-288.32-109.051-124.534 0-239.194 42.938-292.115 109.389-28.686 36.019-37.941 77.31-27.514 122.721 0.818 3.564 1.662 7.073 2.519 10.555 46.742 4.394 95.604 25.83 121.835 68.867 50.18 82.327 79.753 148.503 73.865 194.958 31.104 6.295 66.789 9.597 104.76 9.597 55.346 0 107.935-7.031 148.494-18.816-0.656-45.244 45.276-103.399 93.536-182.579 21.411-35.128 54.859-56.961 89.289-67.125 1.895-7.079 3.502-13.907 4.782-20.396C834.915 321.83900000000006 824.442 282.097 795.312 246.66099999999994z"  horiz-adv-x="1024" />

    
    <glyph glyph-name="shoujidaka" unicode="&#59309;" d="M730.763636 828.509091H302.545455C223.418182 828.509091 160.581818 765.672727 160.581818 686.545455v-586.472728c0-79.127273 62.836364-141.963636 141.963637-141.963636h428.218181c79.127273 0 141.963636 62.836364 141.963637 141.963636V686.545455c0 79.127273-62.836364 141.963636-141.963637 141.963636zM302.545455 777.309091h428.218181c51.2 0 90.763636-39.563636 90.763637-90.763636v-484.072728H211.781818V686.545455c0 51.2 39.563636 90.763636 90.763637 90.763636z m428.218181-768H302.545455c-51.2 0-90.763636 41.890909-90.763637 90.763636V151.272727h609.745455v-51.2c0-48.872727-41.890909-90.763636-90.763637-90.763636zM574.836364 109.381818h-118.690909c-13.963636 0-25.6-11.636364-25.6-25.6S442.181818 58.181818 456.145455 58.181818h118.690909c13.963636 0 25.6 11.636364 25.6 25.6s-11.636364 25.6-25.6 25.6zM414.254545 423.563636l74.472728-46.545454c4.654545-2.327273 9.309091-4.654545 13.963636-4.654546 6.981818 0 13.963636 2.327273 18.618182 9.309091l107.054545 128c9.309091 11.636364 6.981818 27.927273-2.327272 34.909091-11.636364 9.309091-27.927273 6.981818-34.909091-2.327273l-93.090909-109.381818-55.854546 34.909091c-11.636364 6.981818-27.927273 4.654545-34.909091-9.309091-9.309091-11.636364-6.981818-27.927273 6.981818-34.909091zM518.981818 251.345455c123.345455 0 223.418182 100.072727 223.418182 223.418181s-100.072727 223.418182-223.418182 223.418182-223.418182-100.072727-223.418182-223.418182 100.072727-223.418182 223.418182-223.418181z m0 397.963636c95.418182 0 172.218182-76.8 172.218182-172.218182 0-95.418182-76.8-172.218182-172.218182-172.218182-95.418182 0-172.218182 76.8-172.218182 172.218182 0 93.090909 76.8 172.218182 172.218182 172.218182z"  horiz-adv-x="1024" />

    
    <glyph glyph-name="huojian" unicode="&#58880;" d="M479.972 128.224c-17.68 0-32.028 14.349-32.028 32.028v18.929c-6.534 2.322-12.731 5.925-17.952 11.162a47.87 47.87 0 0 0-14.076 33.965v16.014L287.804 192.28V368.434l128.112 192.169V704.729l3.843 7.062C198.59 668.777 31.58 474.095 31.58 240.322c0-139.226 59.3-264.567 153.96-352.308h38.209c-17.68 0-32.028 14.349-32.028 32.028s14.348 32.028 32.028 32.028c1.986 0 3.907-0.24 5.797-0.576-3.667 10.2-5.797 21.138-5.797 32.604 0 53.055 43.045 96.084 96.084 96.084 43.142 0 79.67-28.473 91.792-67.659 6.422 2.162 13.18 3.603 20.306 3.603 20.85 0 39.186-10.137 50.892-25.558 12.988 29.802 13.164 58.66 13.164 73.6 0 28.265-5.525 50.733-10.089 64.649-1.922-0.353-3.891-0.593-5.925-0.593z m124.253 583.567l3.86-7.062v-144.126l128.111-192.169V192.28l-128.112 48.042v-16.014c0-12.298-4.692-24.581-14.076-33.965-5.237-5.237-11.418-8.856-17.952-11.162v-18.929c0-17.68-14.349-32.028-32.028-32.028-2.034 0-4.003 0.24-5.925 0.593-4.564-13.916-10.089-36.384-10.089-64.649 0-14.94 0.176-43.798 13.164-73.6 11.706 15.421 30.042 25.558 50.892 25.558 7.126 0 13.884-1.441 20.306-3.603 12.122 39.186 48.65 67.66 91.792 67.66 53.055 0 96.084-43.047 96.084-96.085 0-11.466-2.114-22.404-5.797-32.604 1.89 0.336 3.811 0.576 5.797 0.576 17.68 0 32.028-14.348 32.028-32.028s-14.348-32.028-32.028-32.028h38.21c94.642 87.74 153.958 213.082 153.958 352.308 0 233.773-167.01 428.455-388.195 471.469zM79.622-95.972h864.756V-128H79.622zM512 720.743c-17.68 0-32.028-14.349-32.028-32.028v-384.337h64.056V688.715c0 17.68-14.349 32.028-32.028 32.028zM447.944 720.743c-17.68 0-32.028-14.349-32.028-32.028v-384.337h64.056V688.715c0 17.68-14.349 32.028-32.028 32.028z m128.112 0c-17.68 0-32.028-14.349-32.028-32.028v-384.337h64.056V688.715c0 17.68-14.348 32.028-32.028 32.028zM608.084 224.308c0-12.298-4.692-24.581-14.076-33.965s-21.667-14.077-33.966-14.077h-96.084c-12.299 0-24.582 4.692-33.966 14.077s-14.076 21.667-14.076 33.965v16.014h192.168v-16.014zM512 864.868l-48.042-80.07h96.084zM399.902 688.715h32.028v-384.337h-32.028z m192.168 0h32.028v-384.337H592.07z m32.028 0H592.07v11.578L512 833.738l-80.07-133.445v-11.578h-32.028v20.45L512 896l112.098-186.835zM624.098 224.308H399.902v96.084h224.196v-96.084zM431.93 256.336h160.14v32.028H431.93v-32.028zM560.042 160.252h-96.084c-17.103 0-33.197 6.662-45.288 18.769-12.106 12.106-18.768 28.184-18.768 45.287v32.028h224.196v-32.028c0-17.103-6.662-33.18-18.768-45.287s-28.185-18.769-45.288-18.769zM431.93 224.308c0-8.551 3.33-16.59 9.384-22.644s14.092-9.384 22.644-9.384h96.084c8.552 0 16.59 3.331 22.644 9.384s9.384 14.093 9.384 22.644H431.93zM752.21 176.266H700.39l-108.319 54.16v383.07l160.14-240.21v-197.02z m-44.263 32.028h12.235V363.582l-96.084 144.126v-257.49l83.85-41.924z m-384.336-32.028H271.79v197.02l160.14 240.21v-383.07l-108.319-54.16z m-19.793 32.028h12.235l83.849 41.925v257.49l-96.084-144.127v-155.288z"  horiz-adv-x="1024" />

    
    <glyph glyph-name="icon-test17" unicode="&#59199;" d="M509.44594 895.688761c128.296984 0 220.955916-52.744316 279.40232-159.658469 44.191183-81.254756 66.999536-193.870998 66.999536-336.423202 0-135.424594-19.957309-248.040835-61.297448-336.423201-58.446404-126.871462-153.956381-191.019954-286.52993-191.019954-119.743852 0-208.126218 51.318794-266.572622 155.381903-49.893271 86.956845-74.127146 203.849652-74.127146 349.2529 0 114.041763 15.680742 210.977262 44.191183 292.232018 54.169838 151.105336 153.956381 226.658005 297.934107 226.658005z m-1.425522-909.483063c64.148492 0 115.467285 28.510441 153.95638 86.956845 38.489095 57.020882 58.446404 163.935035 58.446404 320.742459 0 114.041763-14.25522 206.700696-41.340139 279.402321-28.510441 72.701624-82.680278 109.765197-162.509513 109.765197-74.127146 0-128.296984-34.212529-162.509513-104.063109-34.212529-69.85058-51.318794-171.062645-51.318793-306.487239 0-101.212065 11.404176-183.892343 32.787007-245.189791 34.212529-94.084455 91.233411-141.126682 172.488167-141.126683z"  horiz-adv-x="1024" />

    
    <glyph glyph-name="1-copy" unicode="&#61131;" d="M634.88 896c-5.12 0-5.12 0 0 0-25.6 0-46.08-5.12-61.44-15.36L343.04 752.64c-46.08-30.72-66.56-87.04-35.84-138.24 25.6-46.08 87.04-61.44 133.12-35.84l92.16 56.32v-665.6c0-56.32 46.08-97.28 97.28-97.28s97.28 46.08 97.28 97.28V798.72c5.12 51.2-40.96 97.28-92.16 97.28z"  horiz-adv-x="1024" />

    
    <glyph glyph-name="6-copy" unicode="&#61132;" d="M489.65598-127.70000000000005c-69.9 5.8-103.9 13.9-143.9 33.9C294.15598-68 258.65598-28.399999999999977 236.05598 28.399999999999977 219.65598 69.89999999999998 217.65598 100 216.55598 326.9c-0.8 158.9 0.7 289.4 3.9 335.8 2.6 38.8 9.7 66.2 24.6 95.9C280.25598 828.7 341.25598 871.9 428.85598 888.7 459.75598 894.6 476.45598 896 516.15598 896c55.2-0.1 92-5.2 132.3-18.6C714.55598 855.4 760.05598 815 783.75598 757c14.1-34.5 23.8-88.1 23.8-131.8v-10.5H561.25598l-0.1 34c-0.1 60.8-2 70.3-16.9 83.7-8.5 7.7-19.3 11.5-32.9 11.7-19.4 0.3-33.3-7.5-41.4-23.5-4.3-8.5-4.8-10.9-6-28.6-0.7-10.6-1.3-64.4-1.3-119.6v-100.2l4.3 7.9c23.4 42.4 63.6 65.4 122.4 70.2 60.8 4.9 114.3-12.6 158.7-51.9 18.9-16.7 36.4-42.9 43.7-65.5 12.1-37.4 15.9-83.3 15.9-192.6 0-128.1-3.8-179.8-15.8-215.8-13.1-39.5-44.2-79.9-79.4-103.2-36.6-24.2-85.6-40.9-137.5-47-13.3-1.6-73.8-2.9-85.3-2z m39.8 156c17.2 9.4 23.6 19 28.4 43 2.4 11.9 2.6 22.8 2.6 141.1 0 135.3-0.1 137.2-6.7 157.5-4 12.4-14.4 23.1-25.5 26.4-26.4 7.9-51.3-3.7-58.6-27.1-6.4-20.8-6.5-23.7-6.5-156.1 0-136.4 0.3-142.8 8-163.3 4.1-10.9 14.1-21.2 23.7-24.2 10.7-3.5 25.4-2.3 34.6 2.7z"  horiz-adv-x="1024" />

    
    <glyph glyph-name="icon-test10" unicode="&#59572;" d="M731.2-31.4c-42.8-42.8-117.6-84.4-228.2-84.4s-190.8 42.8-233.6 85.8c-70.6 70.6-80.2 150.6-85.8 222.6h226.8c7-65 34.6-103.6 92.6-103.6 27.6 0 45.6 7 63.6 24.8 20.8 20.8 29 56.6 29 114.8 0 109.2-37.4 139.6-92.6 139.6-66.4 0-83-44.2-92.6-70.6H201.6V876.8h600v-204.6h-394v-152c19.4 15.2 71.8 38.8 132.8 38.8 85.8 0 150.6-29 190.8-69.2 80.2-80.2 91.2-168.6 91.2-261.4 0-118.8-18-186.6-91.2-259.8z"  horiz-adv-x="1024" />

    
    <glyph glyph-name="icon-test11" unicode="&#59191;" d="M103.905882 92.661961V271.861961l477.665883 520.83451H819.2v-550.048628h111.836863v-149.88549H819.2V-54.713725H638.795294V92.661961H103.905882z m201.98902 149.985882h332.900392V604.661961L305.894902 242.647843z"  horiz-adv-x="1024" />

    
    <glyph glyph-name="icon-test12" unicode="&#59192;" d="M512 893.251007c104.461745 0 188.30604-27.489933 251.532886-83.844296 54.979866-49.481879 83.844295-111.334228 83.844295-185.557047 0-49.481879-10.995973-92.091275-32.987919-126.453691-24.74094-35.736913-60.477852-64.601342-108.585235-83.844295v-2.748993c45.358389-12.37047 85.218792-39.860403 118.206711-82.469799 37.111409-46.732886 56.354362-100.338255 56.354363-160.816107 0-87.967785-32.987919-158.067114-96.214765-213.04698-64.601342-53.605369-155.318121-81.095302-272.150336-81.095302-118.206711 0-208.92349 27.489933-272.150336 81.095302-64.601342 54.979866-96.214765 125.079195-96.214765 213.04698 0 60.477852 17.868456 114.083221 56.354363 160.816107 32.987919 42.609396 71.473826 70.099329 118.206711 82.469799v2.748993c-49.481879 19.242953-85.218792 48.107383-108.585235 83.844295-21.991946 34.362416-32.987919 76.971812-32.987919 126.453691 0 74.222819 27.489933 136.075168 83.844295 185.557047C322.319463 865.761074 406.163758 893.251007 512 893.251007zM512 765.422819c-57.728859 0-104.461745-15.119463-138.824161-46.732886-30.238926-27.489933-45.358389-60.477852-45.358389-100.338255 0-45.358389 12.37047-81.095302 37.111409-107.210738C395.167785 479.527517 443.275168 463.033557 512 463.033557c67.350336 0 116.832215 16.49396 147.071141 48.107383 24.74094 26.115436 37.111409 61.852349 37.111409 107.210738 0 39.860403-15.119463 72.848322-45.358389 100.338255C615.087248 750.303356 569.728859 765.422819 512 765.422819z m0-421.97047c-68.724832 0-120.955705-16.49396-156.692617-49.481879-35.736913-31.613423-52.230872-74.222819-52.230873-126.453691 0-49.481879 17.868456-89.342282 54.979866-119.581209 35.736913-30.238926 86.593289-45.358389 153.943624-45.358389 65.975839 0 118.206711 16.49396 156.692617 46.732886 34.362416 30.238926 52.230872 68.724832 52.230873 118.206712 0 52.230872-17.868456 94.840268-50.856376 125.079194-37.111409 34.362416-89.342282 50.856376-158.067114 50.856376z"  horiz-adv-x="1024" />

    
    <glyph glyph-name="icon-test13" unicode="&#59193;" d="M860.64 737.552c-136.416-135.472-233.68-257.472-291.792-365.984-58.128-108.512-97.504-232.848-118.128-373.008L431.728-128H226.416l18.992 126.56c22.032 148.592 67.264 279.488 135.696 392.704 68.448 113.2 162.432 228.64 281.952 346.288H140.64L163.84 895.744h720l-23.2-158.192z"  horiz-adv-x="1024" />

    
    <glyph glyph-name="icon-test14" unicode="&#59194;" d="M201.679458-44.785553c-24.27088 15.024831-39.295711 39.295711-39.295711 71.656885 0 45.074492 36.984199 79.747178 82.058691 79.747178 18.492099 0 33.51693-5.778781 48.541761-13.869074 57.78781-40.451467 113.264108-61.255079 181.453724-61.255079 145.625282 0 233.462754 128.288939 239.241535 310.89842C663.981941 283.44921 587.702032 237.218962 481.37246 237.218962 271.024831 237.218962 130.022573 359.72912 130.022573 551.58465v2.311513C130.022573 748.063205 280.27088 896 498.708804 896c124.82167 0 204.568849-35.828442 276.225733-105.173815 71.656885-73.968397 119.042889-182.609481 119.04289-377.93228v-2.311512c0-317.832957-157.182844-538.582393-424.162529-538.582393-112.108352 1.155756-194.167043 33.51693-268.13544 83.214447z m505.065463 606.772009v2.311512c0 102.862302-80.902935 182.609481-206.880361 182.609481-122.510158 0-196.478555-82.058691-196.478555-183.765237v-2.311512c0-102.862302 79.747178-176.8307 202.257336-176.8307 125.977427 0 201.10158 82.058691 201.10158 177.986456z"  horiz-adv-x="1024" />

    
    <glyph glyph-name="icon-test15" unicode="&#59195;" d="M601.088 880.64c55.808 0 103.936-19.968 144.384-60.416 39.936-39.936 60.416-88.576 60.416-145.408v-163.84c0-24.064-2.56-47.104-7.168-68.608-3.584-22.528-16.384-42.496-37.888-60.416 22.528-9.216 35.328-27.136 39.424-53.248 3.584-26.112 5.632-51.2 5.632-75.776V97.28c0-55.808-19.968-103.936-60.416-144.384-39.936-39.936-88.064-60.416-144.384-60.416H412.16c-56.832 0-105.472 19.968-145.408 60.416-39.936 39.936-60.416 88.064-60.416 144.384v40.448h165.376v-40.448c0-10.24 4.096-19.456 12.8-28.16 7.68-7.68 16.896-11.264 28.16-11.264h188.928c10.24 0 19.456 3.584 28.16 11.264 7.68 8.192 11.264 17.92 11.264 28.16v155.648c0 13.312-4.608 25.6-13.824 37.888-9.216 13.312-19.968 19.456-32.256 19.456H439.296V455.68h155.648c12.288 0 23.04 6.144 32.256 18.432 9.216 13.312 13.824 25.6 13.824 37.888V674.304c0 11.264-3.584 20.48-11.264 28.16-8.192 8.192-17.92 12.8-28.16 12.8H412.672c-11.264 0-20.48-4.096-28.16-12.8-8.192-7.68-12.8-16.896-12.8-28.16V634.88H206.336v39.424c0 56.832 19.968 105.472 60.416 145.408C306.688 860.672 355.328 880.64 412.16 880.64H601.088z"  horiz-adv-x="1024" />

    
    <glyph glyph-name="icon-test16" unicode="&#59196;" d="M487.716767 59.881541h252.408818c69.543532-3.648185 106.025384-35.113783 109.673569-93.940771-3.648185-62.703184-36.709864-93.94077-98.729014-93.94077H279.086172c-69.543532 0-104.201291 31.237586-104.201291 93.94077-3.648185 18.468938 5.472278 42.182142 27.361389 71.823648 29.185482 33.061679 58.370964 66.351369 87.784458 99.413048 120.846137 128.826542 208.630595 235.535961 263.353374 320.356268 32.833667 44.234246 49.478513 88.468493 49.478512 132.474727-7.296371 66.351369-40.358049 103.061234-98.729013 110.357604-58.598976 0-100.781118-42.410154-126.318415-127.002449-21.889112-69.999555-53.126698-103.061234-93.256736-99.413048-69.543532 0-104.201291 33.061679-104.201291 99.413048C198.598085 761.017145 308.499666 867.954576 509.605878 893.719884c197.686039-14.820753 301.88733-112.409708 312.831886-292.766867 0-103.061234-82.31218-248.532621-246.936539-436.18615-44.006235-51.530617-73.191717-86.416388-87.784458-104.885326z"  horiz-adv-x="1024" />

    
    <glyph glyph-name="pingban" unicode="&#59190;" d="M761.582933-119.13216 623.616-119.13216C604.740267-119.13216 589.482667-103.87456 589.482667-84.998827 589.482667-66.123093 604.740267-50.865493 623.616-50.865493L761.582933-50.865493C819.541333-50.865493 870.4-18.950827 870.4 17.401173L870.4 759.45984C870.4 795.845973 819.541333 827.726507 761.582933 827.726507L245.3504 827.726507C187.392 827.726507 136.533333 795.845973 136.533333 759.45984L136.533333 17.401173C136.533333-18.950827 187.392-50.865493 245.3504-50.865493L412.125867-50.865493C430.967467-50.865493 446.2592-66.123093 446.2592-84.998827 446.2592-103.87456 430.967467-119.13216 412.125867-119.13216L245.3504-119.13216C147.729067-119.13216 68.266667-57.89696 68.266667 17.401173L68.266667 759.45984C68.266667 834.757973 147.729067 895.993173 245.3504 895.993173L761.582933 895.993173C859.2384 895.993173 938.666667 834.757973 938.666667 759.45984L938.666667 17.401173C938.666667-57.89696 859.2384-119.13216 761.582933-119.13216M743.550293 786.834773 268.68736 786.834773C227.42016 786.834773 193.83296 753.247573 193.83296 711.980373L193.83296 90.036907C193.83296 48.769707 227.42016 15.182507 268.68736 15.182507L743.550293 15.182507C784.817493 15.182507 818.404693 48.769707 818.404693 90.036907L818.404693 711.980373C818.404693 753.247573 784.817493 786.834773 743.550293 786.834773M743.550293 718.568107C747.134293 718.568107 750.138027 715.53024 750.138027 711.980373L750.138027 90.036907C750.138027 86.452907 747.134293 83.449173 743.550293 83.449173L268.68736 83.449173C265.10336 83.449173 262.099627 86.452907 262.099627 90.036907L262.099627 711.980373C262.099627 715.53024 265.10336 718.568107 268.68736 718.568107L743.550293 718.568107"  horiz-adv-x="1024" />

    
    <glyph glyph-name="huangguan" unicode="&#59189;" d="M814.7 95.2H207.5c-15.3 0-28.9 9.9-33.5 24.5L113.5 309 68 451.5c-10.6 33.2 1.7 68.6 30.6 88.1 28.9 19.5 66.3 17.6 93.1-4.7l114.5-95.3 133 296.5c12.7 28.4 39.8 45.9 70.9 45.9h0.8c31.3-0.3 58.5-18.4 70.8-47.2l126-295.4L833 540.1c26.9 21.6 64.2 23 92.7 3.5 28.5-19.6 40.6-54.8 30.1-87.7L848.2 119.7c-4.7-14.6-18.2-24.5-33.5-24.5zM768.6-13.9H253.5c-19.4 0-35.2 15.8-35.2 35.2s15.8 35.2 35.2 35.2h515.1c19.4 0 35.2-15.8 35.2-35.2s-15.7-35.2-35.2-35.2z"  horiz-adv-x="1024" />

    
    <glyph glyph-name="huangguan-copy" unicode="&#61130;" d="M814.7 95.20000000000005H207.5c-15.3 0-28.9 9.9-33.5 24.5L113.5 309 68 451.5c-10.6 33.2 1.7 68.6 30.6 88.1 28.9 19.5 66.3 17.6 93.1-4.7l114.5-95.3 133 296.5c12.7 28.4 39.8 45.9 70.9 45.9h0.8c31.3-0.3 58.5-18.4 70.8-47.2l126-295.4L833 540.1c26.9 21.6 64.2 23 92.7 3.5 28.5-19.6 40.6-54.8 30.1-87.7L848.2 119.70000000000005c-4.7-14.6-18.2-24.5-33.5-24.5zM768.6-13.899999999999977H253.5c-19.4 0-35.2 15.8-35.2 35.2s15.8 35.2 35.2 35.2h515.1c19.4 0 35.2-15.8 35.2-35.2s-15.7-35.2-35.2-35.2z"  horiz-adv-x="1024" />

    
    <glyph glyph-name="pingguo1" unicode="&#59187;" d="M791.488 351.905c-1.28 129.695 105.76 191.871 110.528 194.975-60.16 88.032-153.856 100.064-187.232 101.472-79.744 8.064-155.584-46.944-196.064-46.944-40.352 0-102.816 45.76-168.96 44.544-86.912-1.28-167.072-50.528-211.808-128.384-90.304-156.703-23.136-388.831 64.896-515.935 43.008-62.208 94.304-132.064 161.632-129.568 64.832 2.592 89.376 41.952 167.744 41.952s100.416-41.952 169.056-40.672c69.76 1.312 113.984 63.392 156.704 125.792 49.376 72.16 69.728 142.048 70.912 145.632-1.536 0.704-136.064 52.224-137.408 207.136zM662.56 732.48C698.304 775.84 722.432 836 715.84 896c-51.488-2.112-113.888-34.304-150.816-77.536-33.152-38.368-62.144-99.616-54.368-158.432 57.472-4.48 116.128 29.216 151.904 72.448z"  horiz-adv-x="1024" />

    
    <glyph glyph-name="anzhuo1" unicode="&#59188;" d="M141.1 564.8c-35 0-63.3-28.3-63.3-63.2v-264.7c0-34.9 28.4-63.2 63.3-63.2 35 0 63.3 28.3 63.3 63.2V501.6c0 34.9-28.3 63.2-63.3 63.2zM228.9 142.7c0-37.3 30.3-67.5 67.6-67.5h46.1v-140c0-34.9 28.4-63.2 63.3-63.2 35 0 63.3 28.3 63.3 63.2v140h85.5v-140c0-34.9 28.4-63.2 63.3-63.2 35 0 63.3 28.3 63.3 63.2v140h46.1c37.3 0 67.6 30.2 67.6 67.5V552.9H228.9v-410.2zM651.8 802.6L696 883c2.4 4.2 0.8 9.6-3.5 11.9-4.2 2.3-9.6 0.8-11.9-3.5l-44.7-81.2C598.4 826.8 556.4 836.1 512 836.1c-44.4 0-86.4-9.3-123.9-25.8L343.4 891.4c-2.3 4.3-7.7 5.8-11.9 3.5-4.3-2.3-5.9-7.7-3.5-11.9l44.2-80.4c-86.8-44.8-145.5-130-145.5-227.7h570.5c0.1 97.8-58.6 182.9-145.4 227.7zM382.2 678c-13.2 0-23.9 10.7-23.9 23.9s10.7 23.9 23.9 23.9 23.9-10.7 23.9-23.9c-0.1-13.2-10.8-23.9-23.9-23.9z m259.7 0c-13.2 0-23.9 10.7-23.9 23.9s10.7 23.9 23.9 23.9 23.9-10.7 23.9-23.9c-0.1-13.2-10.8-23.9-23.9-23.9zM882.9 564.8c-35 0-63.3-28.3-63.3-63.2v-264.7c0-34.9 28.4-63.2 63.3-63.2 35 0 63.3 28.3 63.3 63.2V501.6c0 34.9-28.3 63.2-63.3 63.2z"  horiz-adv-x="1024" />

    
    <glyph glyph-name="ico_efficient" unicode="&#59186;" d="M0.234057 387.320686C0.234057 106.437486 227.913143-121.270857 508.781714-121.270857c280.868571 0 508.576914 227.693714 508.576915 508.576914 0 280.868571-227.693714 508.562286-508.576915 508.562286C227.927771 895.882971 0.234057 668.189257 0.234057 387.320686zM772.666514 631.149714a16.749714 16.749714 0 0 1-14.6432 14.6432c-128.4096 30.4128-261.3248-19.1488-339.061028-126.1568a20.655543 20.655543 0 0 0-11.264-7.899428c-45.056-11.264-86.7328-34.903771-119.3984-68.695772-15.7696-15.7696-29.2864-32.6656-40.5504-51.8144-9.0112-15.784229 6.7584-34.933029 24.7808-28.174628 28.16 10.1376 58.5728 15.784229 87.8592 15.784228 0-2.2528-1.1264-5.646629-1.1264-7.899428a1368.327314 1368.327314 0 0 1 67.584-73.216c23.6544-23.6544 47.3088-46.1824 72.104228-67.584 2.2528 0 5.632 1.1264 7.8848 1.1264 0-30.4128-4.5056-59.684571-15.7696-87.8592a19.265829 19.265829 0 0 1 5.632-22.528c6.7584-5.632 15.7696-6.7584 22.528-2.2528 19.1488 11.264 36.0448 24.7808 51.8144 40.5504 32.6656 32.6656 56.32 74.3424 68.7104 120.539428 1.1264 4.490971 3.364571 8.996571 7.8848 11.264 105.8816 77.706971 154.331429 211.7632 125.0304 340.1728z m-134.0416-214.016a66.077257 66.077257 0 0 0-72.0896-14.6432c-24.7808 10.1376-40.5504 34.9184-40.5504 61.952 0 27.0336 15.7696 51.8144 40.5504 61.952a66.077257 66.077257 0 0 0 72.0896-14.6432c25.892571-25.9072 25.892571-68.7104 0-94.6176zM311.954286 299.973486c-20.2752-20.2752-90.112-157.696-65.3312-182.4768 24.7808-24.7808 134.0416 74.3424 154.331428 94.6176 20.260571 20.2752 16.881371 56.32-7.899428 81.1008-24.7808 24.7808-60.8256 27.0336-81.1008 6.7584z"  horiz-adv-x="1024" />

    
    <glyph glyph-name="weibiaoti--" unicode="&#59185;" d="M121.3 219.6m-40.9 0a40.9 40.9 0 1 1 81.8 0 40.9 40.9 0 1 1-81.8 0ZM266.5 44.4m-40.9 0a40.9 40.9 0 1 1 81.8 0 40.9 40.9 0 1 1-81.8 0ZM512 864.4C252.8 864.4 42.6 654.3 42.6 395c0-69 14.9-134.6 41.7-193.6l74.2 35.4c-21.7 48.3-33.7 101.8-33.7 158.2 0 213.8 173.3 387.2 387.2 387.2S899.2 608.9 899.2 395 725.8 7.9 512 7.9c-81.9 0-157.9 25.4-220.4 68.8l-51.2-57.2c1.5-0.7 2.5-2.1 2.5-3.6s0.3-3.2-1.2-3.9c76.7-54.5 169.2-86.2 270.4-86.2 259.2 0 469.4 210.1 469.4 469.4S771.2 864.4 512 864.4zM512 608.6c22.6 0 41-18.3 41-41V395c0-22.6-18.3-41-41-41-22.6 0-41 18.3-41 41V567.7c0 22.6 18.4 40.9 41 40.9zM789.8 232.8c-11.3-19.6-36.4-26.3-55.9-15L492.2 357.4c-19.6 11.3-26.3 36.4-15 55.9 11.3 19.6 36.4 26.3 55.9 15l241.7-139.5c19.6-11.3 26.3-36.4 15-56z"  horiz-adv-x="1024" />

    
    <glyph glyph-name="dizhi" unicode="&#59183;" d="M391.314286 486.4c0-65.828571 54.857143-120.685714 120.685714-120.685714 65.828571 0 120.685714 54.857143 120.685714 120.685714s-54.857143 120.685714-120.685714 120.685714c-67.657143 0-120.685714-53.028571-120.685714-120.685714z m204.8 0c0-45.714286-38.4-84.114286-84.114286-84.114286s-84.114286 38.4-84.114286 84.114286 38.4 84.114286 84.114286 84.114286 84.114286-36.571429 84.114286-84.114286zM713.142857 325.485714c3.657143 3.657143 5.485714 9.142857 5.485714 12.8 0 5.485714-1.828571 9.142857-5.485714 12.8-7.314286 7.314286-18.285714 7.314286-25.6 0-3.657143-3.657143-5.485714-7.314286-5.485714-12.8 0-5.485714 1.828571-9.142857 5.485714-12.8 3.657143-3.657143 9.142857-5.485714 12.8-5.485714 3.657143 0 9.142857 1.828571 12.8 5.485714zM512 736.914286c-140.8 0-256-115.2-256-256 0-146.285714 217.6-398.628571 254.171429-402.285715 31.085714 0 138.971429 142.628571 164.571428 182.857143 5.485714 9.142857 3.657143 20.114286-5.485714 25.6-9.142857 5.485714-20.114286 3.657143-25.6-5.485714-54.857143-80.457143-113.371429-144.457143-133.485714-162.742857-42.057143 34.742857-219.428571 234.057143-219.428572 362.057143 0 120.685714 98.742857 219.428571 219.428572 219.428571s219.428571-98.742857 219.428571-219.428571c0-14.628571-1.828571-31.085714-7.314286-47.542857-3.657143-10.971429-7.314286-23.771429-12.8-36.571429-3.657143-9.142857 0-20.114286 9.142857-23.771429 9.142857-3.657143 20.114286 0 23.771429 9.142858 5.485714 14.628571 10.971429 27.428571 14.628571 40.228571 5.485714 21.942857 9.142857 40.228571 9.142858 58.514286 1.828571 142.628571-113.371429 256-254.171429 256zM630.857143 168.228571c-9.142857 1.828571-20.114286-5.485714-21.942857-14.628571-1.828571-9.142857 5.485714-20.114286 14.628571-21.942857 65.828571-12.8 82.285714-31.085714 82.285714-32.914286 0-10.971429-60.342857-43.885714-193.828571-43.885714s-193.828571 32.914286-193.828571 43.885714c0 3.657143 14.628571 20.114286 76.8 32.914286 9.142857 1.828571 16.457143 10.971429 14.628571 21.942857-1.828571 9.142857-10.971429 16.457143-21.942857 14.628571-47.542857-9.142857-106.057143-29.257143-106.057143-67.657142 0-54.857143 118.857143-80.457143 230.4-80.457143s230.4 25.6 230.4 80.457143c0 38.4-60.342857 58.514286-111.542857 67.657142z"  horiz-adv-x="1024" />

    
    <glyph glyph-name="suo" unicode="&#59184;" d="M513 827c93.888 0 170-76.112 170-170l0.003-87.04c5.558-0.009 9.245-0.018 9.568-0.028 51.723-1.658 111.257-33.813 128.036-125.37l26.96-209.481c10.346-72.754-3.134-128.888-34.483-166.205-31.349-37.318-82.761-55.507-156.744-55.507H370.752c-58.442-7.331-116.673 15.09-155.118 59.728-38.446 44.637-52 105.563-36.11 162.297 2.165 14.982 16.06 25.371 31.036 23.206 14.976-2.165 25.362-16.064 23.198-31.045a144.92 144.92 0 0 1 23.511-118.54 149.817 149.817 0 0 1 113.17-40.767h285.9c56.742 0 95.928 11.917 116.305 36.691 20.377 24.774 28.527 66.168 20.377 122.616L766.374 434.84c-9.405 50.175-38.559 81.534-78.058 81.534H338.463c-37.619 0-66.773-31.36-78.372-83.73l-7.524-46.098c-3.455-14.085-17.22-23.091-31.505-20.613-14.285 2.478-24.215 15.594-22.728 30.02l7.837 47.04C226.86 538.641 287.99 570 338.463 570H343v87c0 93.888 76.112 170 170 170z m116.998-257.003L630 659c0 64.617-52.383 117-117 117-63.971 0-115.951-51.34-116.984-115.065L396 659v-89l228.07-0.001 5.928-0.002zM478 410m31 0l6 0q31 0 31-31l0-178q0-31-31-31l-6 0q-31 0-31 31l0 178q0 31 31 31Z"  horiz-adv-x="1024" />

    
    <glyph glyph-name="dizhi-copy" unicode="&#61128;" d="M391.314286 486.4c0-65.828571 54.857143-120.685714 120.685714-120.685714 65.828571 0 120.685714 54.857143 120.685714 120.685714s-54.857143 120.685714-120.685714 120.685714c-67.657143 0-120.685714-53.028571-120.685714-120.685714z m204.8 0c0-45.714286-38.4-84.114286-84.114286-84.114286s-84.114286 38.4-84.114286 84.114286 38.4 84.114286 84.114286 84.114286 84.114286-36.571429 84.114286-84.114286zM713.142857 325.48571400000003c3.657143 3.657143 5.485714 9.142857 5.485714 12.8 0 5.485714-1.828571 9.142857-5.485714 12.8-7.314286 7.314286-18.285714 7.314286-25.6 0-3.657143-3.657143-5.485714-7.314286-5.485714-12.8 0-5.485714 1.828571-9.142857 5.485714-12.8 3.657143-3.657143 9.142857-5.485714 12.8-5.485714 3.657143 0 9.142857 1.828571 12.8 5.485714zM512 736.914286c-140.8 0-256-115.2-256-256 0-146.285714 217.6-398.628571 254.171429-402.285715 31.085714 0 138.971429 142.628571 164.571428 182.857143 5.485714 9.142857 3.657143 20.114286-5.485714 25.6-9.142857 5.485714-20.114286 3.657143-25.6-5.485714-54.857143-80.457143-113.371429-144.457143-133.485714-162.742857-42.057143 34.742857-219.428571 234.057143-219.428572 362.057143 0 120.685714 98.742857 219.428571 219.428572 219.428571s219.428571-98.742857 219.428571-219.428571c0-14.628571-1.828571-31.085714-7.314286-47.542857-3.657143-10.971429-7.314286-23.771429-12.8-36.571429-3.657143-9.142857 0-20.114286 9.142857-23.771429 9.142857-3.657143 20.114286 0 23.771429 9.142858 5.485714 14.628571 10.971429 27.428571 14.628571 40.228571 5.485714 21.942857 9.142857 40.228571 9.142858 58.514286 1.828571 142.628571-113.371429 256-254.171429 256zM630.857143 168.228571c-9.142857 1.828571-20.114286-5.485714-21.942857-14.628571-1.828571-9.142857 5.485714-20.114286 14.628571-21.942857 65.828571-12.8 82.285714-31.085714 82.285714-32.914286 0-10.971429-60.342857-43.885714-193.828571-43.885714s-193.828571 32.914286-193.828571 43.885714c0 3.657143 14.628571 20.114286 76.8 32.914286 9.142857 1.828571 16.457143 10.971429 14.628571 21.942857-1.828571 9.142857-10.971429 16.457143-21.942857 14.628571-47.542857-9.142857-106.057143-29.257143-106.057143-67.657142 0-54.857143 118.857143-80.457143 230.4-80.457143s230.4 25.6 230.4 80.457143c0 38.4-60.342857 58.514286-111.542857 67.657142z"  horiz-adv-x="1024" />

    
    </font>
</defs>
</svg>
